<?xml version="1.0" encoding="UTF-8"?>
<svg id="b" data-name="Layer 2" xmlns="http://www.w3.org/2000/svg" width="760.49" height="125.75" viewBox="0 0 760.49 125.75">
  <g id="c" data-name="Layer 1">
    <path d="M.44,59c-.39-.51-.52-1.11-.4-1.79L13.89,1.5c.12-.45,.37-.81,.76-1.07,.39-.26,.82-.38,1.3-.38H56.25c.48,0,.92,.14,1.34,.43,.42,.29,.66,.63,.72,1.02l13.85,55.72c.18,.68,.06,1.28-.36,1.79-.42,.51-.98,.77-1.7,.77h-17.96c-.48,0-.91-.13-1.29-.38-.39-.26-.64-.61-.76-1.07l-1.25-4.61c-.06-.23-.21-.43-.45-.6-.24-.17-.51-.26-.8-.26H24.62c-.3,0-.57,.09-.8,.26-.24,.17-.39,.37-.45,.6-.12,.51-.24,.94-.36,1.28-.12,.34-.21,.65-.27,.94-.42,1.48-.66,2.47-.71,2.99-.18,.57-.6,.85-1.25,.85H2.1c-.71,0-1.27-.26-1.65-.77Zm27.03-25.94c0,.34,.1,.64,.31,.9,.21,.26,.49,.38,.85,.38h14.92c.42,0,.74-.16,.98-.47,.24-.31,.3-.7,.18-1.15l-3.84-13.57c-.06-.34-.3-.51-.71-.51h-8.13c-.36,0-.6,.17-.72,.51l-3.84,13.57v.34Z" fill="#fff"/>
    <path d="M77.08,59.39c-.23-.26-.35-.55-.35-.9V1.24c0-.28,.1-.55,.31-.81,.21-.26,.46-.38,.77-.38h31.31c.26,0,.48,.09,.66,.26,.18,.17,.3,.37,.35,.6l5.74,37.29c.21,.8,.57,1.19,1.08,1.19h2.02c.31,0,.57-.13,.77-.38,.21-.26,.31-.52,.31-.81V1.41c0-.4,.12-.73,.35-.98,.23-.26,.5-.38,.81-.38h16.04c.31,0,.58,.13,.81,.38,.23,.26,.35,.58,.35,.98V58.58c0,.34-.12,.63-.35,.85-.23,.23-.48,.34-.74,.34l-31.08-.09c-.57,0-.93-.28-1.08-.85l-5.89-37.46c-.15-.8-.52-1.19-1.08-1.19h-2.01c-.26,0-.5,.11-.74,.34-.23,.23-.35,.51-.35,.85V58.49c0,.34-.1,.64-.31,.9-.21,.26-.49,.38-.85,.38h-16.04c-.31,0-.58-.13-.81-.38Z" fill="#fff"/>
    <path d="M151.08,57.38c-2.62-1.56-4.71-3.67-6.26-6.31-1.55-2.65-2.32-5.53-2.32-8.66V17.41c0-3.19,.77-6.1,2.32-8.75,1.54-2.65,3.63-4.75,6.26-6.31,2.62-1.56,5.48-2.35,8.57-2.35h37.36c3.15,0,6.04,.78,8.66,2.35,2.62,1.57,4.69,3.67,6.21,6.31,1.52,2.65,2.27,5.56,2.27,8.75v25c0,3.13-.76,6.02-2.27,8.66-1.52,2.65-3.59,4.75-6.21,6.31-2.62,1.56-5.51,2.35-8.66,2.35h-37.36c-3.09,0-5.95-.78-8.57-2.35Zm13.08-18.6c.61,.6,1.33,.9,2.14,.9h24.23c.82,0,1.52-.3,2.1-.9s.88-1.35,.88-2.26v-13.57c0-.91-.29-1.68-.88-2.3-.58-.62-1.28-.94-2.1-.94h-24.23c-.82,0-1.53,.31-2.14,.94-.61,.63-.92,1.39-.92,2.3v13.57c0,.91,.31,1.66,.92,2.26Z" fill="#fff"/>
    <path d="M243.27,59.39c-.23-.26-.35-.55-.35-.9V19.84c0-.34-.12-.63-.35-.85-.23-.23-.53-.34-.88-.34h-21.43c-.29,0-.58-.14-.88-.43-.23-.34-.35-.65-.35-.94V1.33c0-.28,.12-.6,.35-.94,.23-.23,.52-.34,.88-.34h65.96c.35,0,.64,.11,.88,.34,.23,.34,.35,.65,.35,.94v15.96c0,.29-.12,.6-.35,.94-.29,.29-.58,.43-.88,.43h-21.43c-.29,0-.57,.11-.83,.34-.26,.23-.39,.51-.39,.85V58.49c0,.34-.12,.64-.35,.9-.23,.26-.55,.38-.96,.38h-18.02c-.41,0-.73-.13-.96-.38Z" fill="#fff"/>
    <path d="M292.59,59.39c-.26-.26-.39-.55-.39-.9V1.24c0-.34,.13-.62,.39-.85,.26-.23,.54-.34,.83-.34h18.37c.29,0,.55,.12,.79,.34,.23,.23,.35,.51,.35,.85V18.56c0,.34,.13,.63,.39,.85,.26,.23,.54,.34,.83,.34h24.32c.35,0,.64-.11,.88-.34,.23-.23,.35-.51,.35-.85V1.24c0-.34,.13-.62,.39-.85,.26-.23,.54-.34,.83-.34h18.28c.35,0,.64,.12,.87,.34,.23,.23,.35,.51,.35,.85V58.49c0,.34-.12,.64-.35,.9-.23,.26-.55,.38-.96,.38h-18.11c-.35,0-.66-.13-.92-.38-.26-.26-.39-.55-.39-.9v-17.32c0-.28-.12-.55-.35-.81-.23-.26-.52-.38-.88-.38h-24.32c-.29,0-.57,.13-.83,.38-.26,.26-.39,.53-.39,.81v17.32c0,.34-.12,.64-.35,.9-.23,.26-.55,.38-.96,.38h-18.11c-.35,0-.66-.13-.92-.38Z" fill="#fff"/>
    <path d="M436.07,59.35c-.29-.28-.44-.62-.44-1.02V1.5c0-.4,.15-.74,.44-1.02,.29-.28,.64-.43,1.05-.43h48.29c3.73,0,7.17,.78,10.32,2.35,3.15,1.57,5.66,3.9,7.52,7,1.87,3.1,2.8,6.81,2.8,11.13,0,3.98-.96,7.55-2.89,10.71-1.92,3.16-4.49,5.59-7.7,7.29,3.91,7.57,7.09,14.25,9.54,20.05l.09,.26c0,.23-.09,.43-.26,.6-.18,.17-.38,.26-.61,.26h-20.3c-.58,0-.96-.23-1.14-.68l-8.49-17.15c-.17-.45-.56-.68-1.14-.68h-15.48c-.35,0-.64,.13-.88,.38-.23,.26-.35,.53-.35,.81v15.96c0,.23-.06,.46-.18,.68-.23,.51-.67,.77-1.31,.77h-17.85c-.41,0-.76-.14-1.05-.43Zm20.69-36.77c.26,.23,.54,.34,.83,.34l24.5-.09c.88,0,1.56-.21,2.06-.64,.5-.43,.74-.98,.74-1.66,0-.63-.25-1.15-.74-1.58-.5-.43-1.18-.64-2.06-.64h-24.5c-.35,0-.64,.13-.88,.38-.23,.26-.35,.53-.35,.81v2.22c0,.34,.13,.63,.39,.85Z" fill="#fff"/>
    <path d="M365.09,59.3c-.32-.31-.48-.7-.48-1.15V1.67c0-.45,.16-.84,.48-1.15,.32-.31,.71-.47,1.18-.47h61.06c.47,0,.86,.16,1.18,.47,.32,.31,.48,.7,.48,1.15v14.59c0,.46-.16,.84-.48,1.15-.32,.31-.71,.47-1.18,.47h-40.68c-.41,0-.73,.11-.96,.34-.23,.23-.35,.54-.35,.94v2.05c0,.4,.12,.71,.35,.94,.23,.23,.55,.34,.96,.34h40.68c.47,0,.86,.16,1.18,.47,.32,.31,.48,.7,.48,1.15v12.03c0,.46-.16,.84-.48,1.15-.32,.31-.71,.47-1.18,.47h-40.68c-.41,0-.73,.13-.96,.38-.23,.26-.35,.55-.35,.9v2.05c0,.34,.12,.64,.35,.9,.23,.26,.55,.38,.96,.38h40.68c.47,0,.86,.16,1.18,.47,.32,.31,.48,.7,.48,1.15v14.16c0,.46-.16,.84-.48,1.15-.32,.31-.71,.47-1.18,.47h-61.06c-.47,0-.86-.16-1.18-.47Z" fill="#fff"/>
    <path d="M72.45,66.65c.39,.51,.52,1.11,.4,1.79l-13.85,55.72c-.12,.45-.37,.81-.76,1.07-.39,.26-.82,.38-1.29,.38H16.65c-.48,0-.92-.14-1.34-.43-.42-.29-.65-.63-.71-1.02L.74,68.44c-.18-.68-.06-1.28,.36-1.79,.42-.51,.98-.77,1.7-.77H20.76c.48,0,.91,.13,1.3,.38,.39,.26,.64,.61,.76,1.07l1.25,4.61c.06,.23,.21,.43,.45,.6,.24,.17,.51,.26,.8,.26h22.97c.3,0,.57-.09,.8-.26,.24-.17,.39-.37,.45-.6,.12-.51,.24-.94,.36-1.28,.12-.34,.21-.65,.27-.94,.42-1.48,.66-2.47,.71-2.99,.18-.57,.6-.85,1.25-.85h18.68c.71,0,1.27,.26,1.65,.77Zm-27.03,25.94c0-.34-.1-.64-.31-.9-.21-.26-.49-.38-.85-.38h-14.92c-.42,0-.74,.16-.98,.47-.24,.31-.3,.7-.18,1.15l3.84,13.57c.06,.34,.3,.51,.71,.51h8.13c.36,0,.6-.17,.71-.51l3.84-13.57v-.34Z" fill="#fff"/>
    <path d="M84.14,123.4c-2.68-1.56-4.81-3.67-6.39-6.31-1.58-2.65-2.37-5.56-2.37-8.75v-41.13c0-.34,.12-.62,.36-.85,.24-.23,.54-.34,.89-.34h18.77c.3,0,.58,.11,.85,.34,.27,.23,.4,.51,.4,.85v35.24c0,.91,.3,1.68,.89,2.3,.59,.63,1.31,.94,2.14,.94h24.75c.83,0,1.55-.31,2.15-.94,.59-.63,.89-1.39,.89-2.3v-35.24c0-.34,.13-.62,.4-.85,.27-.23,.55-.34,.85-.34h18.68c.36,0,.66,.11,.89,.34,.24,.23,.36,.51,.36,.85v41.13c0,3.19-.79,6.1-2.37,8.75-1.58,2.65-3.71,4.75-6.39,6.31-2.68,1.56-5.63,2.35-8.85,2.35h-38.16c-3.16,0-6.08-.78-8.76-2.35Z" fill="#fff"/>
    <path d="M177.96,125.36c-.23-.26-.35-.55-.35-.9v-38.65c0-.34-.12-.63-.35-.85-.23-.23-.53-.34-.88-.34h-21.43c-.29,0-.58-.14-.88-.43-.23-.34-.35-.65-.35-.94v-15.96c0-.28,.12-.6,.35-.94,.23-.23,.52-.34,.88-.34h65.96c.35,0,.64,.11,.88,.34,.23,.34,.35,.65,.35,.94v15.96c0,.29-.12,.6-.35,.94-.29,.29-.58,.43-.88,.43h-21.43c-.29,0-.57,.11-.83,.34-.26,.23-.39,.51-.39,.85v38.65c0,.34-.12,.64-.35,.9-.23,.26-.55,.38-.96,.38h-18.02c-.41,0-.73-.13-.96-.38Z" fill="#fff"/>
    <path d="M235.98,123.4c-2.62-1.56-4.71-3.67-6.25-6.31-1.55-2.65-2.32-5.53-2.32-8.66v-25c0-3.19,.77-6.1,2.32-8.75,1.54-2.64,3.63-4.75,6.25-6.31,2.62-1.56,5.48-2.35,8.57-2.35h37.36c3.15,0,6.04,.78,8.66,2.35,2.62,1.57,4.69,3.67,6.21,6.31,1.52,2.65,2.27,5.56,2.27,8.75v25c0,3.13-.76,6.02-2.27,8.66-1.52,2.64-3.59,4.75-6.21,6.31-2.62,1.57-5.51,2.35-8.66,2.35h-37.36c-3.09,0-5.95-.78-8.57-2.35Zm13.08-18.6c.61,.6,1.33,.9,2.14,.9h24.23c.82,0,1.52-.3,2.1-.9,.58-.6,.88-1.35,.88-2.26v-13.57c0-.91-.29-1.68-.88-2.3-.58-.62-1.28-.94-2.1-.94h-24.23c-.82,0-1.53,.31-2.14,.94-.61,.63-.92,1.39-.92,2.3v13.57c0,.91,.31,1.66,.92,2.26Z" fill="#fff"/>
    <path d="M305.53,125.36c-.26-.26-.39-.58-.39-.98v-57.08c0-.34,.12-.64,.35-.9,.23-.26,.5-.38,.79-.38h34.73c.7,0,1.08,.29,1.14,.85l5.95,29.61c.12,.34,.29,.63,.53,.85,.23,.23,.47,.34,.7,.34h2.28c.64,0,1.05-.4,1.22-1.19l6.04-29.61c.06-.57,.44-.85,1.14-.85h34.73c.35,0,.64,.13,.88,.38,.23,.26,.35,.55,.35,.9v57.08c0,.4-.12,.73-.35,.98-.23,.26-.56,.38-.96,.38h-18.46c-.41,0-.73-.13-.96-.38-.23-.26-.35-.58-.35-.98v-34.81c0-.28-.12-.55-.35-.81-.23-.26-.53-.38-.88-.38h-2.27c-.64,0-1.05,.4-1.22,1.19l-6.12,35.24c-.06,.23-.19,.43-.39,.6-.21,.17-.45,.26-.74,.26h-24.76c-.23,0-.47-.08-.7-.26-.23-.17-.38-.37-.44-.6l-6.04-35.24c-.18-.8-.58-1.19-1.23-1.19h-2.27c-.29,0-.57,.11-.83,.34-.26,.23-.39,.51-.39,.85v34.81c0,.4-.13,.73-.39,.98-.26,.26-.54,.38-.83,.38h-18.55c-.35,0-.66-.13-.92-.38Z" fill="#fff"/>
    <path d="M402.44,124.98c-.39-.51-.52-1.11-.4-1.79l13.85-55.72c.12-.45,.37-.81,.76-1.07,.39-.26,.82-.38,1.29-.38h40.3c.48,0,.92,.14,1.34,.43,.42,.29,.66,.63,.72,1.02l13.85,55.72c.18,.68,.06,1.28-.36,1.79-.42,.51-.98,.77-1.7,.77h-17.96c-.48,0-.91-.13-1.29-.38-.39-.26-.64-.61-.76-1.07l-1.25-4.61c-.06-.23-.21-.43-.45-.6-.24-.17-.51-.26-.8-.26h-22.97c-.3,0-.57,.09-.8,.26-.24,.17-.39,.37-.45,.6-.12,.51-.24,.94-.36,1.28-.12,.34-.21,.65-.27,.94-.42,1.48-.66,2.47-.71,2.99-.18,.57-.6,.85-1.25,.85h-18.68c-.71,0-1.27-.26-1.65-.77Zm27.03-25.94c0,.34,.1,.64,.31,.9,.21,.26,.49,.38,.85,.38h14.92c.42,0,.74-.16,.98-.47,.24-.31,.3-.7,.18-1.15l-3.84-13.57c-.06-.34-.3-.51-.71-.51h-8.13c-.36,0-.6,.17-.71,.51l-3.84,13.57v.34Z" fill="#fff"/>
    <path d="M545.27,125.32c-.24-.23-.36-.54-.36-.94v-15.87c0-.4,.12-.71,.36-.94,.18-.28,.45-.43,.8-.43h20.11c.42,0,.74-.11,.98-.34,.24-.23,.36-.51,.36-.85v-20.14c0-.34-.12-.63-.36-.85-.24-.23-.57-.34-.98-.34h-20.11c-.36,0-.62-.11-.8-.34-.24-.23-.36-.54-.36-.94v-15.96c0-.4,.12-.71,.36-.94,.18-.28,.45-.43,.8-.43h63.98c.3,0,.59,.14,.89,.43,.24,.34,.36,.65,.36,.94v15.96c0,.29-.12,.6-.36,.94-.24,.23-.54,.34-.89,.34h-20.11c-.3,0-.58,.13-.85,.38-.27,.26-.4,.53-.4,.81v20.14c0,.34,.13,.63,.4,.85,.27,.23,.55,.34,.85,.34h20.11c.3,0,.59,.14,.89,.43,.24,.34,.36,.65,.36,.94v15.87c0,.29-.12,.6-.36,.94-.3,.29-.6,.43-.89,.43h-63.98c-.36,0-.62-.14-.8-.43Z" fill="#fff"/>
    <path d="M494.19,125.36c-.23-.26-.35-.55-.35-.9v-38.65c0-.34-.12-.63-.35-.85-.23-.23-.53-.34-.88-.34h-21.43c-.29,0-.58-.14-.88-.43-.23-.34-.35-.65-.35-.94v-15.96c0-.28,.12-.6,.35-.94,.23-.23,.52-.34,.88-.34h65.96c.35,0,.64,.11,.88,.34,.23,.34,.35,.65,.35,.94v15.96c0,.29-.12,.6-.35,.94-.29,.29-.58,.43-.88,.43h-21.43c-.29,0-.57,.11-.83,.34-.26,.23-.39,.51-.39,.85v38.65c0,.34-.12,.64-.35,.9-.23,.26-.55,.38-.96,.38h-18.02c-.41,0-.73-.13-.96-.38Z" fill="#fff"/>
    <path d="M691.25,125.36c-.26-.26-.39-.55-.39-.9v-57.25c0-.28,.12-.55,.35-.81,.23-.26,.52-.38,.88-.38h35.34c.29,0,.54,.09,.74,.26,.2,.17,.33,.37,.39,.6l6.47,37.29c.23,.8,.64,1.19,1.22,1.19h2.27c.35,0,.64-.13,.88-.38,.23-.26,.35-.52,.35-.81v-36.77c0-.4,.13-.73,.39-.98,.26-.26,.57-.38,.92-.38h18.11c.35,0,.66,.13,.92,.38,.26,.26,.39,.58,.39,.98v57.17c0,.34-.13,.63-.39,.85-.26,.23-.54,.34-.83,.34l-35.08-.09c-.64,0-1.05-.28-1.22-.85l-6.65-37.46c-.17-.8-.58-1.19-1.22-1.19h-2.28c-.29,0-.57,.11-.83,.34-.26,.23-.39,.51-.39,.85v37.12c0,.34-.12,.64-.35,.9-.23,.26-.55,.38-.96,.38h-18.11c-.35,0-.66-.13-.92-.38Z" fill="#fff"/>
    <path d="M624.56,123.4c-2.62-1.56-4.71-3.67-6.25-6.31-1.55-2.65-2.32-5.53-2.32-8.66v-25c0-3.19,.77-6.1,2.32-8.75,1.54-2.65,3.63-4.75,6.25-6.31,2.62-1.56,5.48-2.35,8.57-2.35h37.36c3.15,0,6.04,.78,8.66,2.35,2.62,1.57,4.69,3.67,6.21,6.31,1.52,2.65,2.27,5.56,2.27,8.75v25c0,3.13-.76,6.02-2.27,8.66-1.52,2.65-3.59,4.75-6.21,6.31-2.62,1.56-5.51,2.35-8.66,2.35h-37.36c-3.09,0-5.95-.78-8.57-2.35Zm13.08-18.6c.61,.6,1.33,.9,2.14,.9h24.23c.82,0,1.52-.3,2.1-.9,.58-.6,.88-1.35,.88-2.26v-13.57c0-.91-.29-1.68-.88-2.3-.58-.62-1.28-.94-2.1-.94h-24.23c-.82,0-1.53,.31-2.14,.94-.61,.63-.92,1.39-.92,2.3v13.57c0,.91,.31,1.66,.92,2.26Z" fill="#fff"/>
    <path d="M735.8,17.85h-208.14s-21.32,1.13-21.32,20.95,21.34,20.92,21.34,20.92l35.22,.05s175.64-.12,178.03-.12,19.44,1.18,19.44-20.86-24.57-20.95-24.57-20.95Zm4.03,26.26c-.61,0-45.23,.03-45.23,.03h-4.74c-6.36,0-11.05,0-11.05,0h-8.95s-.06-.02-.14-.03c-12.09,0-39.66,.03-39.66,.03h-8.95s-.06-.02-.14-.03c-12.1,0-39.65,.03-39.65,.03h-8.95s-.05-.02-.11-.02c-13.24,0-35.95,.02-35.95,.02h-8.95s-5.42-.29-5.42-5.33,5.42-5.32,5.42-5.32h52.88s.11,0,.3,0h44.71s.11,0,.3,0h48.43s.11,0,.3,0h48.44s.11,0,.3,0h15.5s6.24-.28,6.24,5.32-4.33,5.3-4.94,5.3Z" fill="#fff"/>
  </g>
</svg>