<?xml version="1.0" encoding="UTF-8"?>
<svg id="b" data-name="Layer 2" xmlns="http://www.w3.org/2000/svg" width="221.59" height="104.96" viewBox="0 0 221.59 104.96">
  <g id="c" data-name="Layer 1">
    <g>
      <path d="M14.11,84.87c-2.38-.21-4.89-.44-7.4-.67-.44-.04-.81-.21-1.16-.48-4.44-3.4-6.83-8.37-4.83-14.26,1.14-3.36,2.74-6.45,4.55-9.46,3.17-5.28,6.66-10.38,9.41-15.91,.2-.4,.33-.95,.99-.81,2.59,.55,5.25,.83,7.67,2.05,1.32,.67,1.9,1.77,2.05,3.18,.09,.91,.06,1.83-.17,2.69-1.26,4.76-3.43,9.02-7.23,12.29-.67,.58-1.87,.82-2.14,1.5-.26,.65,.93,1.28,1.26,2.1,.33,.81,.65,1.61,.63,2.46-.09,3.99,.18,7.96,.42,11.93,.16,2.65-.47,3.19-3.2,3.29-.24,0-.47,.04-.84,.07Zm-8.34-10.83c.07,.64,.15,1.54,.27,2.43,.05,.35,.08,.7,.58,.85,3.04,.94,5.03-.39,5.23-3.56,.22-3.54-.67-4.46-4.26-4.44-.67,0-.99,.18-1.24,.84-.44,1.18-.45,2.4-.57,3.88Zm5.59-11.73c2.87,.01,6.58-4.19,6.24-7.03-.11-.92-.82-1.2-1.59-1.37-.74-.16-1.41-.35-1.93,.59-1.13,2.08-2.4,4.08-3.6,6.13-.25,.43-.8,.9-.54,1.38,.26,.48,.96,.19,1.41,.31Z" fill="#fff"/>
      <path d="M165.94,40.81c-1.84-.17-3.62-.33-5.4-.49-.5-.04-.71-.42-.95-.77-3.79-5.5-5.52-11.53-4.98-18.23,.52-6.33,2.63-12.17,5.25-17.86,.21-.47,.33-1.01,.95-1.14,3.71-.77,7.36-1.88,11.15-2.28,2.34-.24,2.97,.5,2.86,2.85-.15,3.53-1.65,6.7-2.68,9.98-.92,2.93-1.69,5.93-3.11,8.69-.55,1.06-1.02,2.2-2,2.88-.94,.65-.7,1.24-.29,2.01,2.82,5.21,6.46,9.82,10.47,14.16,.5,.54,.98,1.09,1.65,1.84-2.57-.15-4.79-.58-7.01-1.01-.6-.12-.94-.63-1.34-1.03-3.37-3.37-6.32-7.06-8.69-11.2-.2-.35-.41-.95-.9-.69-.47,.25-.02,.72,.07,1.1,.89,3.89,2.59,7.41,4.83,10.68,.07,.1,.07,.26,.12,.49Zm-5.59-21.07c-.46,1.24,.5,1.01,1.48,.78,1.12-.26,2.04-.81,2.57-1.83,1.17-2.25,1.75-4.68,2.01-7.18,.08-.81-.15-1.62-1.14-1.62-1.01,0-2.28-.37-2.79,.97-1.06,2.74-1.72,5.59-2.12,8.88Z" fill="#fff"/>
      <path d="M81.32,64.7c1.85,0,3.71,.02,5.56-.01,.66-.01,.95,.14,.87,.88-.43,3.98-1.18,7.85-3,11.49-3.35,6.71-10.64,7.55-15.94,4.94-5.47-2.69-8.16-7.52-7.06-13.72,1.3-7.35,4.99-13.5,10.92-18.09,3.72-2.88,8.26-2.13,11.22,1.54,1.2,1.48,2.09,3.16,2.81,4.93,.26,.64,.35,1.13-.38,1.56-1.62,.97-3.22,1.99-4.8,3.03-.58,.38-.76,.2-1.01-.36-1.97-4.4-6.14-3.99-8.8-.6-2.4,3.05-3.55,6.55-3.55,10.43,0,3.22,1.91,5.85,4.63,6.35,3.14,.59,6.18-1.25,7.32-4.32,.43-1.14,.11-1.41-1.02-1.33-1.42,.11-2.85,.07-4.27,.14-.72,.04-1.04-.12-.9-.95,.28-1.64,.48-3.28,.68-4.93,.09-.75,.49-.9,1.17-.89,1.85,.03,3.7,.01,5.56,.01,0-.04,0-.07,0-.11Z" fill="#fff"/>
      <path d="M110.76,64.19c1.9,0,3.8,.01,5.7,0,.57,0,1.04-.01,1.06,.76,.18,5.22-1.37,11.35-7.34,14.16-3.88,1.82-7.97,2.17-12.07,.83-5.53-1.82-8.26-6.27-7.52-12.64,.7-6.07,3.08-11.53,7.13-16.15,2.91-3.32,7.01-3.82,10.77-1.44,2.73,1.73,4.83,4.09,6.51,6.85,.41,.68,.29,1.1-.33,1.52-1.42,.95-2.84,1.9-4.23,2.87-.52,.36-.84,.29-1.12-.26-.13-.25-.33-.46-.51-.69-2.76-3.44-6.91-3.19-9.17,.59-1.79,2.99-2.45,6.27-2.15,9.71,.31,3.52,2.66,5.47,6.18,5.26,2.66-.16,4.9-1.13,6.23-3.6,.66-1.24,.5-1.46-.85-1.42-1.57,.04-3.14,.06-4.7,.17-.76,.05-1.04-.18-.94-.94,.11-.89,.17-1.8,.23-2.7q.18-2.59,2.85-2.65c.71-.02,1.42-.04,2.14-.05,.71,0,1.42,0,2.14,0,0-.05,0-.1,0-.15Z" fill="#fff"/>
      <path d="M42.8,84.89c-2.23,.31-4.26,.24-6.28,.27-.59,0-.91-.48-1.27-.84-3.45-3.42-6.22-7.26-7.56-12.02-.83,4.79,.65,8.96,3.6,12.99-1.85,0-3.47,.02-5.09-.01-.52-.01-.81-.45-1.1-.83-3.24-4.14-4.37-8.7-3.21-13.91,1.09-4.89,3.37-9.27,5.54-13.7,1.52-3.12,3.13-6.19,4.41-9.42,.32-.82,.7-1.04,1.58-.89,2.11,.35,4.24,.53,6.35,.85,2.29,.35,3.39,1.54,3.81,3.79,.46,2.47,0,4.85-.73,7.16-1.06,3.4-2.42,6.68-4.72,9.49-.85,1.04-1.74,2.09-3.02,2.52-1.22,.41-1.19,1.11-.84,2.07,1.3,3.62,3.27,6.83,5.9,9.64,.83,.89,1.67,1.78,2.64,2.82Zm-12.75-18.71c.58-.05,.82-.06,1.06-.09,2.78-.31,6.28-6.17,5.24-8.76-.4-1-1.32-1.06-2.22-1.2-.85-.13-1.03,.46-1.26,1.02-1.08,2.61-2.39,5.12-3.38,7.78-.41,1.11-.14,1.37,.56,1.25Z" fill="#fff"/>
      <path d="M170.59,46.98c4.81,0,9.31-.09,13.8,.05,1.55,.05,2.6,1.47,3.8,2.34,2.18,1.58,4.17,3.43,6.06,5.36,.18,.19,.45,.37,.31,1.11-2.46,0-5-.01-7.53,.01-.39,0-.95-.22-1.15,.23-.18,.41,.32,.74,.52,1.1,.54,.95,1.24,1.83,1.61,2.84,.41,1.13,1.09,1.3,2.15,1.23,2.23-.14,4.47-.11,6.69-.25,.88-.06,1.26,.27,1.53,1.05,.52,1.53,.95,3.07,1.24,4.67,.18,.99-.15,1.11-.99,1.1-2.47-.03-4.94,.04-7.41,.03-.76,0-1.07,.14-1.01,1.03,.26,3.66,.22,3.67,3.86,3.81,1.95,.07,3.89,.14,5.84,.2,.52,.02,1.03-.05,1.11,.74,.14,1.37,.34,2.73,.61,4.08,.26,1.34,.63,2.66,.97,4.08-.3,0-.53,.04-.75,0-5.47-1.06-11.02-1.49-16.56-1.9-1.5-.11-1.88-.79-2.1-2.06-.48-2.72-.66-5.47-.74-8.22-.18-6.66-2.71-12.31-7.01-17.32-1.47-1.71-3.2-3.16-4.85-5.29Z" fill="#fff"/>
      <path d="M88.94,27.63c.06,.39,.12,.77,.18,1.16-.1,.39-.07,.76,.12,1.12-.09,.32-.03,.61,.16,.88-.08,.21-.04,.39,.13,.55l.16,.59c-.08,.21-.03,.39,.13,.54,.05,.2,.11,.4,.16,.6-.03,.6,.18,1.12,.54,1.59,1.15,3.58,3.4,6.51,5.84,9.64-2.13,.17-4,.32-5.87,.48-.56,.05-.87-.26-1.18-.64-6.08-7.49-8.67-15.78-5.93-25.34,.29-1,.73-1.34,1.74-1.4,1.46-.08,2.92-.32,4.37-.56,.71-.12,1.08,.02,1.39,.75,2.35,5.46,5.98,10.1,9.54,14.79,.04,.06,.17,.06,.26,.09,.3-.27,.17-.61,.08-.9-1.36-4.37-.7-8.69,.08-13.08,.48-2.7,1.49-3.89,4.31-4.09,3.06-.21,3.08-.47,2.36,2.52-1.19,4.95-1.79,9.89-.41,14.91,.87,3.16,2.35,5.99,4.3,8.58,.51,.68,1.08,1.32,1.86,2.26-3.04,0-5.67,1.16-8.45-.89-4.79-3.53-9.45-7.15-13.35-11.68-.74-.85-1.32-1.84-1.98-2.76-.14-.52-.32-1.03-.73-1.47-.1,.64-.06,1.21,.18,1.76Z" fill="#fff"/>
      <path d="M165.36,78.43c-2.6-.26-5.12-.19-7.64-.19-.7,0-1.12-.26-1.55-.78-2.13-2.61-3.93-5.45-5.98-8.58-.05,2.91-.22,5.48,.1,8.05,.1,.84,.05,1.21-.94,1.17-1.71-.07-3.42-.06-5.13,.02-.9,.04-1.14-.31-1.2-1.12-.23-3.37,.08-6.75-.02-10.12-.18-5.93-1.71-11.5-4.37-16.78-.97-1.94-1.02-1.95,1.11-1.98,3.13-.05,6.25-.44,9.38,.09,1.63,.28,3.08,.94,4.44,1.81,3.82,2.46,7.07,5.42,8.61,9.88,1.29,3.74,.12,6.5-3.55,7.89-1.1,.42-.88,.78-.35,1.45,2.11,2.68,4.11,5.47,6.42,7.99,.27,.3,.67,.55,.66,1.22Zm-14.35-13.6c.58-.05,.92-.07,1.25-.1,2.63-.27,3.51-1.55,2.81-4.06-.78-2.82-2.91-4.29-5.98-4.19-.8,.02-1.1,.13-.76,1.04,.72,1.96,1.26,4,1.45,6.08,.1,1.09,.48,1.43,1.23,1.24Z" fill="#fff"/>
      <path d="M26.54,30.42c0-3.84,.03-7.69-.02-11.53-.01-.96,.23-1.17,1.21-1.06,4.33,.5,8.7,.72,13,1.5,5.99,1.08,9.21,4.85,9.7,10.94,.23,2.83,.68,5.61,.05,8.46-.63,2.81-2.73,5.03-5.56,5.61-2.02,.41-4.07,.42-6.09,.25-3.78-.31-7.55-.83-11.32-1.23-.85-.09-.93-.56-.93-1.26,.02-3.89,.01-7.78,.01-11.68h-.04Zm10.17,7.54s0,.05,0,.08c.8-.08,1.61-.11,2.4-.25,2.98-.53,4.04-1.72,4.19-5.25,.03-.85-.1-1.7-.21-2.55-.46-3.33-1.92-4.91-5.2-5.78-.98-.26-1.99-.17-2.95-.36-.97-.19-1.22,.1-1.22,1.06-.01,4.03,.2,8.05,.72,12.05,.11,.82,.4,1.07,1.15,1,.38-.03,.76,0,1.14,0Z" fill="#fff"/>
      <path d="M132.69,29.39c.39,1.85,.36,3.7,.3,5.55-.12,3.85-1.73,5.66-5.52,6.13-2.78,.35-5.57,.6-8.35,.94-.73,.09-1.22-.09-1.72-.67-5.4-6.22-6.99-13.41-5.48-21.38,.38-2,.84-3.99,1.25-5.99,.17-.83,.57-1.26,1.49-1.41,3.28-.52,6.49-1.41,9.81-1.69,3.88-.32,6.04,1.19,7.19,4.94,.8,2.63,.81,5.34,1.01,8.03,.13,1.84,.03,3.7,.03,5.55Zm-14.77-3.93c-.04,3.13,.57,6.13,1.76,9.01,.15,.37,.18,.81,.75,.92,2.73,.55,5.55-1.46,5.83-4.26,.29-2.99,.04-5.96-.62-8.88-.48-2.14-2.18-3.37-4.36-3.28-.61,.03-1.23,.14-1.84,.14-.77,0-1.12,.36-1.18,1.1-.14,1.75-.46,3.48-.33,5.25Z" fill="#fff"/>
      <path d="M62.66,19.14c-.71,2.69-1.16,5.31-1.07,7.98,.1,3.24,.36,6.45,2.21,9.28,1.22,1.87,2.94,2.75,5.15,2.7,2.22-.05,3.18-1.28,2.69-3.47-.42-1.89-.88-3.77-1.13-5.71-.44-3.44-.12-6.81,.73-10.16,.22-.85,.57-1.24,1.52-1.27,1.66-.05,3.31-.27,4.96-.44,.59-.06,.92-.03,.67,.73-2.13,6.66-1.05,13.12,1.23,19.51,.43,1.21,.69,2.45,.65,3.76-.08,2.23-.88,3.45-3.06,4.05-7.62,2.09-17.46-1.6-20.75-9.24-2.38-5.53-2.27-11.15-1.21-16.88,.09-.47,.22-.88,.89-.86,2.13,.04,4.26,.02,6.51,.02Z" fill="#fff"/>
      <path d="M217.66,55.64h-5.22c-.05,.22-.12,.36-.08,.39,4,3.74,5.68,8.53,6.34,13.81,.59,4.76,1.39,9.49,2.79,14.09,.26,.84,.03,.99-.78,.83-2.14-.42-4.29-.82-6.45-1.16-.98-.15-1.46-.63-1.74-1.57-1.19-4.03-1.72-8.17-2.2-12.33-.55-4.75-1.84-9.21-5.15-12.87-.59-.65-1.2-1.11-2.08-.91-3.61,.81-6.09-.77-8.49-3.35-2-2.16-4.54-3.83-7.15-5.33,.31-.49,.72-.28,1.04-.28,4.75-.02,9.5-.03,14.26-.03,.61,0,1.19,.01,1.79,.31,4.29,2.11,8.47,4.39,12.3,7.26,.33,.25,.63,.53,.94,.8l-.11,.34Z" fill="#fff"/>
      <path d="M155.78,3.49c-1.53,3.06-2.47,5.97-3.43,8.88-.2,.6-.62,.74-1.16,.84-2.05,.39-4.1,.84-6.15,1.21-.71,.13-1.09,.43-1.2,1.15-.23,1.4-.49,2.8-.77,4.19-.17,.83,.04,1.12,.94,.93,1.77-.37,3.56-.61,5.33-.97,.71-.14,.98,.04,.89,.76-.26,2.08-.32,4.17-.03,6.25,.09,.66-.14,.91-.83,.96-1.7,.13-3.4,.4-5.1,.53-.97,.08-1.32,.33-1.06,1.4,.92,3.84,.88,3.84,4.81,3.57,1.27-.09,2.73-.53,3.78-.07,1.08,.47,1.21,2.14,1.78,3.27,.63,1.27,1.56,2.34,2.28,3.67-3.41,0-6.71,0-10.01,0-.29,0-.59-.07-.85,.01-2.41,.71-3.65-.71-4.76-2.51-2.39-3.9-3.6-8.14-3.59-12.7,0-5.81,1.44-11.36,3.31-16.82,.19-.56,.4-1.01,1.08-1.16,4.81-1.08,9.61-2.2,14.77-3.39Z" fill="#fff"/>
      <path d="M121.72,70.27c.52-7.05-.07-13.73-2.09-20.24-.33-1.07-.18-1.35,.98-1.36,3.94-.05,7.88-.19,11.82-.36,.85-.04,1.21,.24,1.58,1.01,1.04,2.19,1.77,4.49,2.56,6.77,.32,.94,.18,1.27-.86,1.27-2.14,0-4.27,.17-6.41,.15-1.03,0-1.19,.38-1.02,1.26,.21,1.12,.42,2.25,.47,3.38,.03,.8,.34,.92,1.03,.89,2.13-.1,4.28-.07,6.41-.23,1.03-.07,1.35,.29,1.36,1.23,0,1.28,.03,2.57,.12,3.84,.06,.89-.18,1.24-1.15,1.24-2.14-.01-4.27,.14-6.41,.15-.88,0-1.24,.22-1.28,1.18-.12,2.89-.16,2.88,2.68,2.77,1.9-.08,3.8-.13,5.69-.23,.66-.03,.93,.16,.91,.87-.03,1.14,0,2.28,.11,3.41,.08,.81-.25,.94-.95,.96-4.79,.15-9.59,.32-14.38,.55-.91,.04-1.15-.26-1.19-1.09-.14-2.57-.03-5.13,.04-7.42Z" fill="#fff"/>
      <path d="M52.63,60.56c2.15-3.21,4.35-6.68,6.18-10.35,.56-1.13,1.21-1.48,2.41-1.32,1.27,.17,2.56,.17,3.84,.18,.86,0,.95,.26,.58,.99-1.56,3.1-3.41,6.03-5.38,8.88-1.81,2.61-3.57,5.27-5.48,7.8-1.25,1.67-1.9,3.49-2.02,5.51-.22,3.74,.11,7.4,1.84,10.81,.44,.86,.42,1.32-.7,1.27-.33-.02-.66,.06-.99,.08-3.98,.3-4.61-.14-5.66-4.02-.88-3.25-1.14-6.54-.47-9.87,.43-2.16-.36-4.22-.52-6.34-.39-5.12-.13-10.24-.03-15.37,.01-.73,.38-.85,1-.79,1.47,.14,2.94,.29,4.41,.32,.93,.02,1.04,.43,1.03,1.22-.04,3.7-.02,7.39-.02,10.98Z" fill="#fff"/>
      <path d="M158.84,47.31c2.3,0,4.18,0,6.06,0,.46,0,.84,.14,1.14,.48,5.31,5.94,9.77,12.28,10.08,20.66,.12,3.27,.08,6.57,.78,9.79,.13,.58-.08,.78-.65,.75-2.18-.11-4.37-.23-6.55-.3-.83-.03-.84-.65-.94-1.18-.37-1.97-.43-3.97-.42-5.96,.03-5.34-.7-10.52-3.32-15.28-1.35-2.45-2.8-4.84-4.66-6.96-.45-.52-.84-1.09-1.52-1.99Z" fill="#fff"/>
      <path d="M127.97,97.16c.05,1.35-.11,2.75-.64,4.09-.85,2.16-2.34,3.54-4.75,3.68-2.41,.14-4.14-1-5.1-3.13-1.43-3.19-1.38-6.47,0-9.66,.88-2.04,2.57-3.15,4.84-3.12,2.32,.03,3.92,1.2,4.83,3.33,.65,1.51,.86,3.09,.82,4.81Zm-3.76-.08c.02-1.28-.02-2.56-.51-3.77-.27-.67-.74-1.14-1.48-1.14-.73,0-1.24,.46-1.44,1.16-.72,2.42-.73,4.84,0,7.26,.2,.67,.68,1.16,1.43,1.2,.83,.03,1.28-.51,1.56-1.22,.43-1.13,.48-2.3,.46-3.49Z" fill="#fff"/>
      <path d="M143.28,97.18c-.02-2.04,.22-3.85,1.18-5.5,1.05-1.81,2.63-2.7,4.69-2.66,2.13,.05,3.75,1.07,4.6,3.03,1.37,3.19,1.44,6.46,.11,9.68-.83,1.99-2.4,3.13-4.62,3.21-2.29,.09-3.88-.99-4.93-2.97-.83-1.55-1.06-3.22-1.02-4.79Zm3.77-.12c-.07,1.05,.03,2.19,.35,3.28,.22,.74,.65,1.42,1.55,1.44,.89,.02,1.38-.58,1.59-1.36,.62-2.33,.64-4.67-.06-6.99-.22-.74-.72-1.26-1.53-1.26-.81,0-1.27,.57-1.5,1.3-.37,1.14-.46,2.31-.41,3.6Z" fill="#fff"/>
      <path d="M136.39,101.22c1.23,0,2.19-.03,3.13,.01,.49,.03,1.28-.31,1.4,.26,.19,.91,.04,1.88-.03,2.83,0,.08-.51,.18-.78,.18-3.46,.01-6.92,0-10.51,0,.13-.63,.53-.96,.83-1.33,1.92-2.29,3.86-4.57,5.78-6.86,.52-.62,1.02-1.26,1.13-2.1,.13-.97-.18-1.73-1.15-2.02-1.01-.31-2.2-.09-2.32,.99-.21,1.95-1.48,1.39-2.6,1.55-1.48,.21-1.54-.51-1.31-1.61,.47-2.2,1.99-3.59,4.42-4.03,2.43-.44,4.98,.52,6.05,2.26,1.06,1.73,.89,3.93-.6,5.84-1.04,1.33-2.2,2.56-3.47,4.03Z" fill="#fff"/>
      <path d="M109.65,101.22c1.4,0,2.53,.05,3.66-.02,.76-.04,.94,.22,.94,.95,.02,2.36,.06,2.36-2.25,2.36h-9.41c2.22-2.64,4.26-5.04,6.27-7.46,.51-.62,1.02-1.25,1.43-1.94,.46-.77,.57-1.63-.05-2.39-.49-.61-1.21-.74-1.94-.57-.91,.21-1.42,.91-1.43,1.74,0,.9-.47,.86-1.06,.83-.24-.01-.47,0-.71,0-2.23,0-2.43-.25-1.62-2.38,.85-2.21,2.61-3.2,4.86-3.31,2.18-.1,4.22,.38,5.4,2.44,1.14,1.99,.76,3.95-.61,5.7-1.05,1.33-2.21,2.57-3.49,4.05Z" fill="#fff"/>
      <path d="M66.02,100.04c-1,0-2,.05-2.99-.01-1-.07-.97,.4-.71,1.1,.56,1.51,2.55,1.85,4.06,.69,.5-.38,2.75,.02,3,.57,.2,.44-.22,.68-.44,.95-1.31,1.57-4.47,2.09-6.89,1.15-2.28-.88-3.55-2.92-3.43-5.5,.11-2.42,1.75-4.52,4-5.15,3.94-1.1,7.37,1.33,7.47,5.26,.02,.73-.17,1.01-.94,.96-1.04-.07-2.09-.02-3.13-.02Zm-1.68-2.19c.19,0,.39,.05,.56,0,.47-.16,1.29,.43,1.4-.38,.09-.67-.53-1.14-1.16-1.43-.66-.3-1.3-.21-1.89,.12-.51,.29-.98,.79-.89,1.33,.12,.71,.85,.23,1.29,.35,.22,.06,.47,.01,.7,.01Z" fill="#fff"/>
      <path d="M72.01,100.91c1.16,.77,2.29,1.32,3.58,1.39,.62,.03,1.35,.02,1.54-.71,.21-.85-.6-.96-1.14-1.17-.79-.3-1.64-.47-2.42-.81-1.13-.49-1.8-1.38-1.8-2.66,0-1.31,.64-2.29,1.81-2.83,2.09-.98,4.22-.66,6.18,.29,.96,.46,.01,1.38-.08,2.08-.09,.71-.56,.38-.94,.19-.86-.43-1.77-.7-2.74-.56-.4,.06-.76,.25-.79,.69-.03,.39,.3,.58,.61,.69,.8,.29,1.62,.53,2.41,.84,1.79,.69,2.42,1.54,2.37,3.12-.05,1.47-1.03,2.71-2.61,3.18-2.11,.64-4.12,.25-6.09-.62-.45-.2-.66-.45-.48-.98,.23-.66,.38-1.35,.59-2.13Z" fill="#fff"/>
      <path d="M83.2,100.46c0-.85-.01-1.71,0-2.56,.01-.71,.17-1.47-1.01-1.3-.71,.1-.55-.56-.49-.9,.09-.58-.42-1.64,.4-1.67,1.34-.04,1.05-.8,1.13-1.57,.05-.54-.45-1.43,.39-1.57,1-.17,2.1-.15,3.08,.1,.43,.11,.13,1.03,.17,1.58,.05,.71-.25,1.46,1.05,1.46,.96,0,.43,1.04,.51,1.61,.06,.42,.18,1.09-.59,.98-1.08-.15-.97,.51-.96,1.19,.01,1.94-.02,3.88,.02,5.83,.01,.64-.14,.89-.85,.92-2.83,.13-2.83,.16-2.83-2.65,0-.47,0-.95,0-1.42Z" fill="#fff"/>
      <path d="M94.23,102.77c.01,1.19-.96,2.17-2.14,2.16-1.13,0-2.05-.91-2.09-2.06-.05-1.22,.86-2.2,2.05-2.22,1.2-.03,2.17,.91,2.18,2.12Z" fill="#fff"/>
      <path d="M88.94,27.63c-.24-.55-.28-1.12-.18-1.76,.41,.44,.59,.95,.73,1.47-.19,.1-.37,.19-.56,.29Z" fill="#fff"/>
      <path d="M90.52,34.65c-.37-.47-.57-.99-.54-1.59,.46,.43,.53,1,.54,1.59Z" fill="#fff"/>
      <path d="M89.23,29.9c-.19-.36-.21-.73-.12-1.12,.46,.33,.4,.71,.12,1.12Z" fill="#fff"/>
      <path d="M89.82,32.47c-.16-.15-.21-.33-.13-.54,.28,.12,.41,.28,.13,.54Z" fill="#fff"/>
      <path d="M89.52,31.33c-.16-.15-.21-.34-.13-.55,.29,.12,.41,.29,.13,.55Z" fill="#fff"/>
    </g>
  </g>
</svg>