<?xml version="1.0" encoding="UTF-8"?>
<svg id="b" data-name="Layer 2" xmlns="http://www.w3.org/2000/svg" width="140.51" height="94.26" viewBox="0 0 140.51 94.26">
  <g id="c" data-name="Layer 1">
    <g>
      <path d="M19.4,59.3h-4.85v-7.19h-4.29v13.55h2.4v-3.46h3.46v10.43h-3.46v-3.62h-2.4v13.88l1.84-.06v3.23H1.06v-3.23h1.84v-30.72H1.06v-3.23H19.4v10.43Z" fill="#fff"/>
      <path d="M28.21,83.11h1.67v2.96h-10.15v-2.96h1.67v-31.28h-2.01v-2.96h8.81v34.24Z" fill="#fff"/>
      <path d="M39.31,59.13v23.98h1.67v2.96h-10.15v-2.96h1.67v-21.02h-1.67v-2.96h8.48Zm-3.62-10.04c1.15,0,2.14,.42,2.96,1.25,.82,.84,1.23,1.83,1.23,2.98s-.41,2.19-1.23,3.01-1.82,1.23-3.01,1.23-2.19-.42-3.01-1.25c-.82-.84-1.23-1.85-1.23-3.04s.42-2.18,1.25-2.98c.84-.8,1.85-1.2,3.04-1.2Z" fill="#fff"/>
      <path d="M49.79,59.13l.33,1.62c.52-.82,1.04-1.38,1.56-1.7,.52-.32,1.19-.47,2.01-.47,1.15,0,2.23,.34,3.23,1.03,1,.69,1.82,1.63,2.45,2.82,.52,1.04,.92,2.43,1.2,4.15,.28,1.73,.42,3.67,.42,5.83,0,4.39-.59,7.85-1.78,10.4-1.19,2.55-2.83,3.82-4.91,3.82-.71,0-1.35-.12-1.92-.36-.58-.24-1.29-.68-2.15-1.31v6.36h1.78v2.96h-10.26v-2.96h1.67v-29.22h-1.67v-2.96h8.03Zm2.45,3.23c-.45,0-.8,.12-1.06,.36-.26,.24-.46,.73-.59,1.45s-.22,1.73-.28,3.01c-.06,1.28-.08,2.98-.08,5.1,0,2.3,.03,4.16,.08,5.58s.15,2.5,.28,3.26,.33,1.27,.59,1.53c.26,.26,.61,.39,1.06,.39,.71,0,1.26-.58,1.67-1.73,.07-.26,.15-.7,.22-1.31,.07-.61,.14-1.36,.2-2.23,.06-.87,.09-1.82,.11-2.84s.03-2.09,.03-3.21c0-1.78-.04-3.27-.11-4.46-.08-1.19-.2-2.15-.36-2.87-.17-.72-.39-1.24-.67-1.56-.28-.32-.64-.47-1.09-.47Z" fill="#fff"/>
      <path d="M84.08,67.83v3.01h-2.29v15.22h-2.17l-.72-2.57c-.97,1.08-1.92,1.85-2.84,2.31-.93,.46-2.01,.7-3.23,.7-3.27,0-5.76-1.62-7.47-4.85-1.71-3.23-2.56-7.92-2.56-14.05,0-2.97,.22-5.65,.67-8.03,.45-2.38,1.09-4.39,1.92-6.05,.84-1.65,1.85-2.93,3.04-3.82,1.19-.89,2.54-1.34,4.07-1.34,1.12,0,2.14,.21,3.07,.64,.93,.43,1.93,1.14,3.01,2.15l.73-2.29h2.51v11.38h-5.07v-4.13c0-.48,0-.86-.03-1.14-.02-.28-.06-.51-.11-.7-.06-.19-.12-.43-.19-.72-.19-.63-.53-1.14-1.03-1.53-.5-.39-1.07-.59-1.7-.59-1.08,0-1.85,.56-2.31,1.67s-.7,3.01-.7,5.69v18.07c0,1,0,1.8,.03,2.4,.02,.59,.06,1.06,.11,1.39,.06,.33,.13,.61,.22,.81,.09,.21,.23,.42,.42,.64,.37,.48,.85,.72,1.45,.72,.74,0,1.25-.34,1.53-1.03,.28-.69,.42-1.9,.42-3.65v-7.3h-2.12v-3.01h11.38Z" fill="#fff"/>
      <path d="M94.23,58.57c3.01,0,5.3,1.18,6.86,3.54,1.56,2.36,2.34,5.83,2.34,10.4,0,9.41-3.12,14.11-9.37,14.11-2.94,0-5.18-1.19-6.72-3.57-1.54-2.38-2.31-5.87-2.31-10.48s.78-8.09,2.34-10.45c1.56-2.36,3.85-3.54,6.86-3.54Zm2.01,7.53c0-.82,0-1.45-.03-1.9-.02-.45-.04-.79-.06-1.03-.02-.24-.05-.42-.08-.53-.04-.11-.08-.22-.11-.33-.33-.78-.91-1.17-1.73-1.17-.93,0-1.54,.47-1.84,1.39-.04,.11-.06,.22-.08,.33-.02,.11-.03,.28-.03,.5s0,.55-.03,.98c-.02,.43-.03,1.01-.03,1.76v12.99c0,.82,0,1.45,.03,1.9,.02,.45,.04,.79,.06,1.03,.02,.24,.04,.42,.06,.53,.02,.11,.06,.22,.14,.33,.33,.78,.91,1.17,1.73,1.17,.93,0,1.54-.46,1.84-1.39,.04-.11,.06-.22,.08-.33,.02-.11,.03-.28,.03-.5s0-.55,.03-.98c.02-.43,.03-1.01,.03-1.76v-12.99Z" fill="#fff"/>
      <path d="M122.78,48.87v34.24h1.67v2.96h-7.86l-.28-1.34c-.74,.74-1.39,1.25-1.95,1.5s-1.21,.39-1.95,.39c-2.34,0-4.13-1.12-5.35-3.37s-1.84-5.57-1.84-9.95c0-4.76,.58-8.4,1.73-10.93,1.15-2.53,2.84-3.79,5.07-3.79,.74,0,1.4,.12,1.98,.36,.58,.24,1.24,.68,1.98,1.31v-8.42h-1.73v-2.96h8.53Zm-6.8,18.57c0-1.75-.13-3-.39-3.76-.26-.76-.69-1.14-1.28-1.14-.78,0-1.33,.74-1.65,2.23-.32,1.49-.47,4.03-.47,7.64s.15,6.38,.45,7.97c.3,1.6,.82,2.4,1.56,2.4,.3,0,.59-.11,.86-.33,.28-.22,.47-.5,.59-.84,.11-.41,.2-.98,.25-1.7,.06-.73,.08-1.83,.08-3.32v-9.14Z" fill="#fff"/>
      <path d="M139.4,67.16h-4.13c0-3.79-.84-5.69-2.51-5.69-.52,0-.99,.24-1.39,.72-.41,.48-.61,1.06-.61,1.73,0,.45,.06,.87,.2,1.28,.13,.41,.35,.84,.67,1.28,.32,.45,.74,.93,1.28,1.45,.54,.52,1.22,1.12,2.04,1.78,1.97,1.64,3.39,3.19,4.27,4.66,.87,1.47,1.31,3.06,1.31,4.77,0,1.08-.18,2.07-.53,2.98-.35,.91-.84,1.7-1.45,2.37-.61,.67-1.34,1.19-2.17,1.56-.84,.37-1.74,.56-2.71,.56-.78,0-1.49-.11-2.12-.33-.63-.22-1.38-.65-2.23-1.28l-.33,1.06h-3.01v-8.7h3.9c.04,1.34,.07,2.29,.11,2.84,.04,.56,.13,1.04,.28,1.45,.45,1.23,1.23,1.84,2.34,1.84,1.45,0,2.17-.76,2.17-2.29,0-.41-.05-.79-.14-1.14-.09-.35-.28-.72-.56-1.12-.28-.39-.68-.84-1.2-1.34s-1.19-1.12-2.01-1.87c-1.08-.97-1.96-1.83-2.65-2.59s-1.25-1.51-1.67-2.23c-.43-.72-.72-1.44-.89-2.15s-.25-1.49-.25-2.34c0-1.15,.17-2.2,.5-3.15,.33-.95,.79-1.77,1.37-2.48,.58-.71,1.27-1.25,2.09-1.65,.82-.39,1.71-.58,2.68-.58,.71,0,1.34,.09,1.9,.28,.56,.19,1.26,.54,2.12,1.06l.5-.78h2.84v8.03Z" fill="#fff"/>
    </g>
    <polygon points="0 0 0 46.1 70.1 12.99 140.19 46.1 140.19 0 0 0" fill="#fff"/>
    <polygon points="77.37 37.8 62.82 37.8 70.1 28.49 77.37 37.8" fill="#fff"/>
  </g>
</svg>