<?xml version="1.0" encoding="UTF-8"?>
<svg id="b" data-name="Layer 2" xmlns="http://www.w3.org/2000/svg" width="803.48" height="131.51" viewBox="0 0 803.48 131.51">
  <g id="c" data-name="Layer 1">
    <g>
      <path d="M2.63,47.56c-1.46-.17-2.31-1.05-2.57-2.64-.26-1.58,.3-2.72,1.67-3.41,4.03-2.31,9.51-3.92,16.45-4.82,6.94-.9,12.51-.71,16.71,.58,3.43,1.11,5.14,4.89,5.14,11.31,2.4-3.77,5.57-6.79,9.51-9.06,3.94-2.27,8.18-3.45,12.73-3.54,6.86-.17,12.08,.84,15.68,3.02,3.6,2.19,5.87,5.64,6.81,10.35,2.31-3.94,5.48-7.13,9.51-9.58,4.03-2.44,8.4-3.71,13.11-3.79,8.14-.08,14.01,1.41,17.61,4.5,3.6,3.09,5.4,8.19,5.4,15.3v29.57c0,2.31,1.11,4.2,3.34,5.66,.17,.09,.9,.56,2.19,1.41,1.11,.77,1.46,1.89,1.03,3.34-.43,1.46-1.33,2.19-2.7,2.19h-21.08c-7.63,0-11.53-4.24-11.7-12.73l.13-20.82v-1.8c0-2.23-.02-3.9-.06-5.01-.04-1.11-.21-2.44-.51-3.99-.3-1.54-.86-2.64-1.67-3.28-.82-.64-1.86-.96-3.15-.96-2.74,.09-5.19,1.65-7.33,4.69-2.14,3.04-3.34,6.36-3.6,9.96v21.34c0,2.4,1.11,4.29,3.34,5.66,.17,.09,.9,.56,2.19,1.41,1.11,.77,1.46,1.89,1.03,3.34-.43,1.46-1.33,2.19-2.7,2.19h-21.21c-7.54,0-11.4-4.24-11.57-12.73v-20.82c.08-1.71,.11-3.47,.06-5.27-.04-1.8-.19-3.43-.45-4.88-.26-1.46-.79-2.64-1.61-3.54-.82-.9-1.95-1.35-3.41-1.35-2.91,.09-5.46,1.84-7.65,5.27-2.19,3.43-3.28,6.99-3.28,10.67v20.05c0,2.31,1.11,4.2,3.34,5.66,.17,.09,.9,.56,2.19,1.41,1.11,.77,1.46,1.89,1.03,3.34-.43,1.46-1.33,2.19-2.7,2.19H6.75c-1.37,0-2.27-.73-2.7-2.19-.43-1.46-.09-2.57,1.03-3.34,.51-.34,1.37-.86,2.57-1.54,2.31-1.11,3.47-2.96,3.47-5.53V49.75c0-1.2-.39-1.97-1.16-2.31-.77-.34-2.06-.41-3.86-.19-1.8,.21-2.96,.32-3.47,.32Z" fill="#fff"/>
      <path d="M140.18,84.07c-.43-4.71,.49-8.78,2.76-12.21,2.27-3.43,5.23-5.93,8.87-7.52,3.64-1.58,7.6-2.72,11.89-3.41,4.28-.69,8.18-.94,11.7-.77,3.51,.17,6.34,.6,8.48,1.29v-4.37c0-4.97-.58-8.61-1.74-10.93s-3.11-3.51-5.85-3.6c-1.54,0-2.83,.17-3.86,.51-1.03,.34-1.86,1.05-2.51,2.12-.64,1.07-1.09,1.95-1.35,2.64-.26,.69-.64,1.89-1.16,3.6-.69,2.4-2.74,3.98-6.17,4.76-3.43,.77-6.71,.49-9.83-.84-3.13-1.33-4.61-3.36-4.44-6.11,.26-3.94,3.19-7.13,8.81-9.58,5.61-2.44,12.96-3.62,22.05-3.54,10.62,0,19.17,2.08,25.65,6.23,6.47,4.16,9.71,10.61,9.71,19.35-.09,5.91-.13,13.46-.13,22.62,0,4.11,.98,6.3,2.96,6.56,.69,.09,1.58-.19,2.7-.84,1.11-.64,1.93-.92,2.44-.84,1.2,.34,1.54,1.37,1.03,3.08-1.11,3.09-4.46,5.23-10.03,6.43-2.83,.6-5.96,.9-9.38,.9-4.97-.09-9.17-1.09-12.6-3.02-3.43-1.93-5.49-4.73-6.17-8.42-1.97,3.69-4.97,6.54-9,8.55-4.03,2.01-8.48,3.02-13.37,3.02-5.83,0-10.73-1.41-14.72-4.24-3.98-2.83-6.23-6.64-6.75-11.44Zm28.41-7.46c-.26,3.26,.3,5.91,1.67,7.97,1.37,2.06,3.47,3.04,6.3,2.96,4.63-.08,7.03-4.24,7.2-12.47l.13-7.07c-.94-.43-2.08-.75-3.41-.96-1.33-.21-2.89-.23-4.69-.06-1.8,.17-3.39,1.07-4.76,2.7-1.37,1.63-2.19,3.94-2.44,6.94Z" fill="#fff"/>
      <path d="M220.65,43.32c-1.11-.77-1.46-1.88-1.03-3.34,.43-1.46,1.33-2.19,2.7-2.19h38.56c1.29,0,2.14,.73,2.57,2.19,.43,1.46,.08,2.57-1.03,3.34-.86,.51-1.5,.94-1.93,1.29-2.31,1.46-2.96,3.3-1.93,5.53l13.11,32.65,13.63-31.11h-.13l.64-1.67c.94-2.23,.3-4.03-1.93-5.4-.43-.34-1.07-.77-1.93-1.29-1.11-.77-1.46-1.88-1.03-3.34,.43-1.46,1.29-2.19,2.57-2.19h16.58c1.37,0,2.27,.73,2.7,2.19,.43,1.46,.08,2.57-1.03,3.34-1.03,.69-1.84,1.16-2.44,1.41-2.31,1.46-3.94,3.21-4.88,5.27l-19.8,44.35c-1.03,2.4-2.87,3.6-5.53,3.6h-15.81c-2.66,0-4.5-1.2-5.53-3.6l-19.54-44.35c-1.03-2.31-2.66-4.03-4.88-5.14-.34-.17-.67-.34-.96-.51-.3-.17-.62-.36-.96-.58-.34-.21-.6-.36-.77-.45Z" fill="#fff"/>
      <path d="M336.73,99.75c-10.88,0-19.5-2.76-25.84-8.29-6.34-5.53-9.51-13.39-9.51-23.59s3.17-18.06,9.51-23.59c6.34-5.53,14.95-8.29,25.84-8.29s19.73,2.68,26.03,8.03c6.3,5.36,9.45,13.3,9.45,23.85s-3.15,18.49-9.45,23.85c-6.3,5.36-14.98,8.03-26.03,8.03Zm2.25-52.32c-1.41-3.17-3.54-4.5-6.36-3.99-2.83,.51-4.39,2.57-4.69,6.17-.3,3.6,.41,10.07,2.12,19.41,1.63,9.69,3.13,16.13,4.5,19.35,1.37,3.21,3.47,4.56,6.3,4.05,2.83-.51,4.39-2.59,4.69-6.23,.3-3.64-.37-10.13-1.99-19.48-1.63-9.68-3.15-16.11-4.56-19.28Z" fill="#fff"/>
    </g>
    <g>
      <path d="M429.62,47.56c-1.46-.17-2.31-1.05-2.57-2.64-.26-1.58,.3-2.72,1.67-3.41,4.11-2.31,9.08-3.92,14.91-4.82,5.83-.9,10.84-.71,15.04,.58,3.08,.94,4.8,3.9,5.14,8.87,3.34-5.91,8.57-9.3,15.68-10.16,8.57-1.03,15.6,.24,21.08,3.79,5.48,3.56,8.18,8.08,8.1,13.56-.09,3.86-1.54,6.94-4.37,9.26s-6.86,3.21-12.08,2.7c-3.26-.34-5.66-1.31-7.2-2.89-1.54-1.58-2.4-3.43-2.57-5.53-.17-2.1-.24-4.16-.19-6.17,.04-2.01-.26-3.68-.9-5.01-.64-1.33-1.91-1.95-3.79-1.86-2.66,.09-4.84,1.37-6.56,3.86-1.72,2.49-2.87,5.14-3.47,7.97-.6,2.83-.9,5.66-.9,8.48v21.21c0,2.31,1.11,4.2,3.34,5.66,.17,.09,.9,.56,2.19,1.41,1.11,.77,1.46,1.89,1.03,3.34-.43,1.46-1.33,2.19-2.7,2.19h-36.76c-1.37,0-2.27-.73-2.7-2.19-.43-1.46-.09-2.57,1.03-3.34,.51-.34,1.37-.86,2.57-1.54,2.31-1.11,3.47-2.96,3.47-5.53V49.75c0-1.2-.39-1.97-1.16-2.31-.77-.34-2.06-.41-3.86-.19-1.8,.21-2.96,.32-3.47,.32Z" fill="#fff"/>
      <path d="M512.53,48.85c-1.37-.08-2.18-.94-2.44-2.57-.26-1.63,.26-2.78,1.54-3.47,4.03-2.31,9.53-3.92,16.52-4.82,6.98-.9,12.53-.71,16.65,.58,3.51,1.11,5.27,5.06,5.27,11.83v34.97c0,2.4,1.11,4.29,3.34,5.66,.43,.26,1.16,.73,2.19,1.41,1.11,.77,1.43,1.89,.96,3.34-.47,1.46-1.35,2.19-2.64,2.19h-37.28c-1.29,0-2.14-.73-2.57-2.19-.43-1.46-.09-2.57,1.03-3.34,.6-.43,1.46-.94,2.57-1.54,2.31-1.11,3.47-2.96,3.47-5.53V51.03c0-1.2-.39-1.97-1.16-2.31-.77-.34-2.08-.41-3.92-.19-1.84,.22-3.02,.32-3.54,.32Zm33.68-24.94c-3,2.4-7.24,3.6-12.72,3.6s-9.75-1.22-12.79-3.66c-3.04-2.44-4.56-5.85-4.56-10.22s1.52-7.63,4.56-10.03c3.04-2.4,7.31-3.6,12.79-3.6s9.72,1.2,12.72,3.6c3,2.4,4.5,5.74,4.5,10.03s-1.5,7.89-4.5,10.28Z" fill="#fff"/>
      <path d="M561.77,47.56c-1.46-.17-2.31-1.05-2.57-2.64-.26-1.58,.3-2.72,1.67-3.41,4.03-2.31,9.45-3.92,16.26-4.82,6.81-.9,12.32-.71,16.52,.58,3.43,1.11,5.14,4.8,5.14,11.06,2.4-3.68,5.57-6.64,9.51-8.87,3.94-2.23,8.14-3.38,12.6-3.47,8.14-.08,14.01,1.41,17.61,4.5,3.6,3.09,5.4,8.19,5.4,15.3v29.57c0,2.4,1.11,4.29,3.34,5.66,.17,.09,.9,.56,2.19,1.41,1.11,.77,1.46,1.89,1.03,3.34-.43,1.46-1.33,2.19-2.7,2.19h-21.21c-7.54,0-11.4-4.24-11.57-12.73l.13-20.82v-5.72c0-.9-.09-2.06-.26-3.47-.17-1.41-.45-2.46-.83-3.15-.39-.69-.94-1.31-1.67-1.86-.73-.56-1.65-.84-2.76-.84-2.66,.09-5.04,1.61-7.13,4.56-2.1,2.96-3.32,6.23-3.66,9.83v21.6c0,2.31,1.11,4.2,3.34,5.66,.17,.09,.9,.56,2.18,1.41,1.11,.77,1.46,1.89,1.03,3.34-.43,1.46-1.33,2.19-2.7,2.19h-36.76c-1.37,0-2.27-.73-2.7-2.19-.43-1.46-.09-2.57,1.03-3.34,.51-.34,1.37-.86,2.57-1.54,2.31-1.11,3.47-2.96,3.47-5.53V49.75c0-1.2-.39-1.97-1.16-2.31-.77-.34-2.06-.41-3.86-.19-1.8,.21-2.96,.32-3.47,.32Z" fill="#fff"/>
      <path d="M672.19,87.28c-6-2.06-10.67-5.14-14.01-9.26-3.34-4.11-5.01-9.08-5.01-14.91,0-8.65,3.47-15.32,10.41-19.99,6.94-4.67,16.37-7.01,28.28-7.01,6.25-.77,11.4-2.31,15.43-4.63,4.03-2.31,7.71-5.35,11.05-9.13,2.4-2.74,4.93-2.78,7.58-.13,2.57,2.57,3.77,5.74,3.6,9.51-.09,1.63-.51,3.08-1.29,4.37-1.03,1.63-3.19,2.62-6.49,2.96-3.3,.34-6.32,.34-9.06,0,11.83,4.29,17.74,12.3,17.74,24.04,0,8.91-3.43,15.64-10.28,20.18-6.86,4.54-16.28,6.81-28.28,6.81-1.54,0-3.77-.08-6.68-.26-2.66,.6-4.84,1.56-6.56,2.89-1.72,1.33-2.23,2.76-1.54,4.31,.51,.94,2.1,1.43,4.76,1.48,2.66,.04,5.76-.37,9.32-1.22,3.55-.86,7.46-1.5,11.7-1.93,4.24-.43,8.23-.64,11.96-.64s7.09,.92,10.09,2.76c3,1.84,5.01,4.61,6.04,8.29,1.11,3,1.22,6.02,.32,9.06-.9,3.04-2.4,5.78-4.5,8.23-2.1,2.44-5.33,4.46-9.71,6.04-4.37,1.58-9.51,2.38-15.43,2.38-2.74,0-4.46-.94-5.14-2.83-.51-1.46-.04-2.36,1.41-2.7,.17-.09,.39-.13,.64-.13,2.23-.09,4.37-.26,6.43-.51,2.06-.26,4.24-.66,6.56-1.22,2.31-.56,4.07-1.39,5.27-2.51,1.2-1.11,1.54-2.44,1.03-3.98-.43-1.29-1.52-1.97-3.28-2.06-1.76-.09-4.11,.21-7.07,.9-2.96,.68-6.11,1.46-9.45,2.31-3.34,.86-7.26,1.67-11.76,2.44-4.5,.77-8.76,1.11-12.79,1.03-5.57-.17-10.05-1.69-13.43-4.56-3.39-2.87-5.12-6.71-5.21-11.51-.17-9,5.61-15.3,17.35-18.9Zm15.17-44.99c-3.09,.43-4.8,2.17-5.14,5.21-.34,3.04,.39,8.55,2.19,16.52,1.8,8.31,3.47,13.8,5.01,16.45,1.54,2.66,3.86,3.81,6.94,3.47,3.08-.43,4.78-2.19,5.08-5.27,.3-3.09-.45-8.61-2.25-16.58-1.8-8.23-3.45-13.67-4.95-16.33-1.5-2.66-3.79-3.81-6.88-3.47Z" fill="#fff"/>
      <path d="M736.21,86.38c-1.46-3.26-1.33-6.15,.39-8.68,1.71-2.53,4.41-3.54,8.1-3.02,2.06,.26,3.77,1.01,5.14,2.25,1.37,1.24,2.53,2.66,3.47,4.24,.94,1.59,1.93,3.21,2.96,4.89,1.03,1.67,2.61,3.17,4.76,4.5,2.14,1.33,4.76,2.25,7.84,2.76,3.17,.51,5.57,.3,7.2-.64,1.63-.94,2.44-2.4,2.44-4.37,0-1.71-1.44-3.43-4.31-5.14-2.87-1.71-6.36-3.41-10.48-5.08-4.11-1.67-8.21-3.51-12.28-5.53-4.07-2.01-7.56-4.61-10.48-7.78-2.92-3.17-4.37-6.64-4.37-10.41-.09-5.91,2.87-10.61,8.87-14.08,6-3.47,13.97-4.99,23.91-4.56,8.91,.34,15.98,1.72,21.21,4.11,5.23,2.4,8.14,5.44,8.74,9.13,.34,2.4-.3,4.33-1.93,5.78-1.63,1.46-3.69,2.01-6.17,1.67-2.23-.34-4.2-1.24-5.91-2.7-1.71-1.46-3.06-2.98-4.05-4.56-.99-1.58-2.49-3.06-4.5-4.44-2.01-1.37-4.39-2.19-7.13-2.44-2.4-.17-4.43,.17-6.11,1.03-1.67,.86-2.55,2.1-2.63,3.73-.09,2.14,1.26,3.98,4.05,5.53,2.78,1.54,6.25,2.94,10.41,4.18,4.16,1.24,8.31,2.61,12.47,4.11,4.16,1.5,7.75,3.66,10.8,6.49,3.04,2.83,4.65,6.26,4.82,10.28,.43,7.2-2.27,12.73-8.1,16.58-5.83,3.86-14.44,5.78-25.84,5.78-3.51,0-7.29-.32-11.31-.96-4.03-.64-8.33-2.06-12.92-4.24-4.58-2.19-7.61-4.99-9.06-8.42Z" fill="#fff"/>
    </g>
  </g>
</svg>