<?xml version="1.0" encoding="UTF-8"?>
<svg id="b" data-name="Layer 2" xmlns="http://www.w3.org/2000/svg" width="206.88" height="102.87" viewBox="0 0 206.88 102.87">
  <g id="c" data-name="Layer 1">
    <g>
      <path d="M99.48,51.66c4.08-8.7,8.17-17.39,12.3-26.19-.92,0-1.7-.04-2.48,0-1.15,.08-.72-.77-.76-1.29-.04-.54-.25-1.18,.77-1.16,2.79,.06,5.57,.03,8.36,.01,.47,0,.67,.09,.7,.63,.1,1.8,.12,1.89-1.66,1.76-1.25-.09-1.82,.37-2.33,1.49-2.69,6-5.46,11.96-8.23,17.93-.33,.72-.34,1.37-.13,2.14,3.55,12.99,7.07,25.99,10.56,38.99,.24,.9,.59,1.27,1.49,1.13,.35-.05,.71,.04,1.06-.02,1.04-.17,1.3,.23,1.31,1.27,.01,1.08-.31,1.29-1.32,1.27-3.57-.06-7.14-.05-10.71,0-.81,.01-1.15-.22-1.34-1.01-2.42-9.68-4.88-19.36-7.34-29.04-.09-.35-.08-.77-.52-1.17,0,.47,0,.81,0,1.15,0,8.8,.02,17.61-.02,26.41,0,.93,.24,1.29,1.16,1.13,.15-.03,.31,0,.47,0,1.61,0,1.96,.49,1.61,2.09-.1,.46-.37,.42-.68,.42-5.06,0-10.13,0-15.19,0-.54,0-.63-.23-.66-.71-.1-1.81-.12-1.81,1.67-1.81q1.59,0,1.59-1.6c0-27.27,0-54.55,.03-81.82,0-1.08-.27-1.49-1.33-1.3-.19,.03-.39,0-.59,0-1.23,0-1.83-.94-1.36-2.09,.15-.36,.43-.27,.69-.27,3.96,0,7.93,0,11.89-.02,.58,0,.76,.19,.72,.74-.04,.63,0,1.26,0,1.89,0,15.92,0,31.83,0,47.75,0,.41,0,.83,0,1.24,.09,.01,.18,.02,.27,.03Zm-5.39-6.83V21.72c0-6.09,0-12.18-.01-18.27,0-.35,.26-.92-.23-1.02-.64-.13-1.38-.18-1.97,.03-.46,.16-.19,.84-.19,1.28-.01,27.31-.01,54.62-.01,81.93,0,.31,0,.63,0,.94,0,.2,0,.45,.24,.46,.67,.03,1.39,.16,1.98-.04,.45-.15,.18-.85,.18-1.29,.01-13.64,.01-27.27,.01-40.91Zm8.84,7.22c-.69,1.48-1.82,2.69-1.26,4.54,.98,3.22,1.71,6.51,2.54,9.77,1.69,6.64,3.41,13.27,5.06,19.92,.36,1.46,1.44,.8,2.15,.76,.8-.04,.27-.75,.17-1.16-2.14-8.42-4.28-16.84-6.44-25.26-.73-2.86-1.48-5.72-2.22-8.58Z" fill="#fff"/>
      <path d="M177.86,56.33c0-6.76,.13-13.51-.03-20.27-.18-7.76,5.94-13.06,12.81-13.6,4.77-.37,9.1,.66,12.6,4.22,2.47,2.51,3.61,5.54,3.61,9.02,0,13.63-.07,27.26,.03,40.89,.06,7.58-5.63,12.69-12.06,13.46-4.29,.51-8.37-.11-11.9-2.85-3.34-2.59-5.07-5.98-5.06-10.24,.02-6.87,0-13.75,0-20.62Zm20.64,29.83c2.23-1.69,3.2-4.04,3.21-6.74,.04-15.4,.03-30.81,0-46.21,0-2.32-.8-4.38-2.4-6.08-.24-.26-.41-.69-1.03-.56,1.57,3.61,.99,7.4,1.01,11.12,.05,14.34,.02,28.69,.02,43.03,0,1.82-.27,3.59-1.05,5.26-.07,.13-.18,.27,.01,.37,.03,.02,.15-.12,.22-.19Zm-1.72-29.91c0-8.52,0-17.05,0-25.57,0-.74-.06-1.49-.17-2.22-.35-2.44-1.93-3.76-4.36-3.68-2.5,.08-4.02,1.52-4.22,3.99-.06,.7-.11,1.41-.11,2.11,0,16.97,0,33.93,0,50.9,0,.78,.03,1.57,.14,2.35,.24,1.67,1.02,2.93,2.76,3.43,3.14,.89,5.38-.53,5.84-3.75,.09-.62,.11-1.25,.11-1.88,0-8.56,0-17.12,0-25.69Zm-12.94,28.85c-1.42-3.04-.93-6.25-.94-9.4-.03-13.39-.01-26.79-.01-40.18,0-2.62-.21-5.27,.92-7.76,.04-.08-.03-.21-.06-.4-2.41,1.96-3.37,4.5-3.38,7.47,0,14.3,0,28.59,0,42.89,0,2.96,.95,5.51,3.47,7.38Zm14.12-58.79c.14,.09,.21,.16,.3,.19,.04,.01,.13-.03,.16-.07,.1-.13-.04-.21-.12-.23-.08-.02-.18,.05-.34,.11Z" fill="#fff"/>
      <path d="M33.81,56.2c0-6.76,.14-13.52-.04-20.27-.19-6.92,5.04-12.15,11.09-13.2,5.41-.94,10.39-.05,14.41,4.08,2.24,2.3,3.44,5.06,3.47,8.25,.06,7.15,0,14.3,.04,21.45,0,.88-.36,.92-1.03,.92-5.61-.02-11.22,0-16.84-.01-.54,0-1.06-.14-1.06,.77,.04,8.41,0,16.82,.08,25.22,.03,3.39,2.66,5.15,5.91,4.16,1.84-.56,2.78-2.01,2.81-4.53,.04-4.24,.04-8.49,0-12.73,0-.88,.16-1.21,1.13-1.19,2.71,.08,5.41,.03,8.12,.03,.42,0,.88-.11,.86,.6-.09,3.06,.29,6.15-.17,9.18-.91,5.91-4.63,9.47-10.24,10.78-5.98,1.39-11.47,.27-15.71-4.62-1.92-2.22-2.84-4.83-2.84-7.78,0-7.03,0-14.07,0-21.1Zm20.56-29.83c-.07-.06-.19-.18-.22-.16-.18,.1-.07,.23,.01,.34,.8,1.7,1.08,3.5,1.07,5.36-.02,7.38,.02,14.75-.04,22.13,0,1.13,.59,.92,1.23,.92,.65,0,1.24,.19,1.23-.93-.06-7.06,.02-14.13-.05-21.19-.03-2.62-1.09-4.85-3.23-6.48Zm-10.45,15.24s-.03,0-.04,0c0,4.08,.04,8.17-.03,12.25-.01,.97,.3,1.15,1.17,1.12,2.2-.06,4.39-.07,6.59,0,.88,.03,1.09-.2,1.09-1.09-.05-5.46-.02-10.92-.02-16.38,0-2.71,.04-5.42-.03-8.13-.05-1.84-.54-3.55-2.51-4.26-2.59-.93-6.15-.13-6.21,4.1-.05,4.12-.01,8.25-.01,12.37Zm-4.17-13.96c-.49-.05-.62,.19-.77,.34-1.79,1.82-2.64,4.03-2.64,6.58,0,14.49,0,28.99,0,43.48,0,1.11,.14,2.19,.53,3.23,.56,1.51,1.41,2.81,2.8,3.73-.52-1.79-.95-3.56-.9-5.42,.04-1.88,0-3.77,0-5.66,0-11.19-.06-22.39,.03-33.58,.03-4.24-.66-8.54,.94-12.71Zm14.35,58.39c.57,.18,.8-.18,1.06-.46,1.12-1.19,1.96-2.56,2.24-4.18,.51-2.96,.08-5.95,.26-8.92,.07-1.12-.6-.91-1.25-.93-.72-.03-1.23-.06-1.2,.99,.08,2.86,.04,5.73,.03,8.59,0,1.7-.27,3.35-1.13,4.91Zm-14.3-.85s-.05,.06-.04,.08c.05,.11,.11,.11,.16,0,0-.02-.02-.06-.04-.08-.02-.01-.05,0-.08,0Z" fill="#fff"/>
      <path d="M10.25,76.8c0,2.24-.07,4.48,.02,6.72,.14,3.31,2.51,5.05,5.36,4.01,1.86-.67,2.35-2.32,2.35-3.99,0-4.43,.31-8.88-.17-13.3-.3-2.78-1.49-5.17-3.5-7.14-3.44-3.38-6.9-6.76-10.31-10.17-2.01-2.01-3.13-4.51-3.52-7.29-.58-4.1-.66-8.25-.11-12.33,.82-6.11,5.64-10.38,11.81-10.85,3.76-.29,7.37,.19,10.48,2.56,3.33,2.54,5.06,5.9,5.1,10.11,.02,2.44-.03,4.87,.02,7.31,.02,.78-.12,1.09-1,1.07-2.67-.06-5.34-.06-8,0-.85,.02-1.02-.26-1.01-1.05,.04-4.2,.02-8.41,.02-12.61,0-.95-.12-1.88-.45-2.77-.56-1.5-1.72-2.28-3.35-2.3-1.6-.01-2.76,.8-3.33,2.31-.3,.82-.43,1.66-.43,2.53,0,3.18-.03,6.37,.01,9.55,.05,3.71,1.19,6.95,3.98,9.58,3.2,3.01,6.24,6.2,9.41,9.24,2.53,2.43,3.87,5.42,4.22,8.83,.41,3.95,.43,7.92,.07,11.88-.55,6.13-5.43,10.85-11.56,11.37-3.93,.33-7.67-.12-10.94-2.57-3.46-2.59-5.26-6.03-5.27-10.38,0-2.32,.03-4.64-.02-6.95-.02-.79,.14-1.09,1.01-1.07,2.71,.06,5.41,.05,8.12,0,.75-.01,1.01,.17,.99,.97-.05,2.24-.02,4.48-.02,6.72,0,0,.01,0,.02,0Zm-4.38,8.27c.11,.09,.21,.17,.32,.26,.11-.19,.09-.35-.11-.47-.27-.98-.65-1.91-.78-2.94-.4-3.17-.16-6.35-.18-9.52,0-1.1-.65-.83-1.23-.83-.57,0-1.27-.27-1.22,.83,.08,1.84,.03,3.69,.02,5.53-.02,2.87,.98,5.27,3.18,7.15Zm13.31,1.29c.84-.29,.86-.29,1.15-.58,1.61-1.62,2.58-3.58,2.64-5.86,.08-3.3,.12-6.6-.02-9.9-.16-3.72-1.39-6.99-4.19-9.65-3.33-3.16-6.49-6.5-9.77-9.72-1.64-1.61-2.91-3.47-3.26-5.73-.87-5.6-1.25-11.21,.26-16.78,.05-.17,.13-.37-.18-.54-1.51,1.25-2.56,2.84-2.85,4.79-.53,3.59-.35,7.21-.12,10.81,.24,3.72,1.86,6.77,4.61,9.34,3.24,3.03,6.27,6.28,9.44,9.38,2.1,2.05,3.14,4.56,3.47,7.4,.48,4.15,.23,8.31,.19,12.47-.02,1.57-.36,3.11-1.36,4.56Zm-.07-60.15c.87,1.62,1.2,3.33,1.21,5.11,.02,2.98,.02,5.96,0,8.94,0,.61,.14,.86,.78,.79,.39-.05,.78-.02,1.17,0,.32,.01,.52-.07,.51-.45-.12-3.21,.35-6.45-.3-9.62-.42-2.02-1.56-3.66-3.35-4.77Z" fill="#fff"/>
      <path d="M133.99,56.28c0,8.6,0,17.21,0,25.81,0,.51,.03,1.02,.09,1.52,.35,3.32,2.67,4.86,5.88,3.94,1.64-.47,2.4-1.64,2.68-3.23,.3-1.71,.2-3.44,.21-5.17,0-3.06,.02-6.13-.01-9.19,0-.67,.19-.86,.85-.85,2.79,.04,5.57,.02,8.36,0,.51,0,.9-.01,.89,.71-.06,2.71,0,5.42-.09,8.13-.21,5.98-5.09,10.64-10.22,11.73-5.68,1.21-10.92,.42-15.2-3.91-2.32-2.34-3.48-5.19-3.48-8.48-.01-14.03-.03-28.05,0-42.08,.02-6.11,4.74-11.46,11.03-12.52,4.69-.79,9.15-.26,13.03,2.79,3.18,2.51,4.82,5.81,4.91,9.86,.05,2.4-.03,4.79,.03,7.19,.02,.85-.31,.96-1.02,.95-2.71-.03-5.42-.04-8.12,0-.77,.01-.97-.19-.97-.97,.01-4.44,.06-8.88-.09-13.31-.12-3.45-2.28-4.97-5.64-4.25-1.64,.36-2.72,1.55-2.97,3.37-.1,.74-.14,1.49-.14,2.23,0,8.57,0,17.13,0,25.7Zm10.28-30.08c-.06-.05-.12-.1-.18-.15,0,.03-.03,.08-.02,.1,.06,.11,.14,.11,.22,.02,.12,1.25,.84,2.32,.95,3.6,.3,3.48,.11,6.97,.12,10.45,0,.98,.52,.91,1.09,.81,.51-.09,1.4,.53,1.38-.74-.05-2.43,.07-4.86-.04-7.29-.13-2.77-1.15-5.15-3.51-6.8Zm-14.46,1.2c-.15,.12-.32,.22-.45,.35-2.12,1.97-2.92,4.46-2.92,7.3,.01,14.15,0,28.29,.01,42.44,0,.74,.03,1.5,.15,2.23,.37,2.23,1.42,4.07,3.28,5.41-.52-1.65-.94-3.29-.94-5.03,.02-15.87,.02-31.75,0-47.62,0-1.47,.26-2.88,.77-4.26,.09-.25,.29-.48,.08-.81Zm14.48,58.92c1.79-1.31,2.94-3.03,3.29-5.2,.48-2.96,.15-5.95,.2-8.93,.02-1.25-.99-.46-1.51-.61-.57-.17-.92,.03-.91,.77,.05,2.24,0,4.47,.02,6.71,.01,2.47,0,4.92-1.1,7.26Z" fill="#fff"/>
      <path d="M80.42,43.65c0,14.07,.01,28.14-.03,42.21,0,1.04,.24,1.44,1.27,1.25,.15-.03,.31,0,.47,0,1.44,0,1.99,.8,1.53,2.17-.13,.38-.38,.33-.65,.33-5.06,0-10.13,0-15.19,.01-.48,0-.56-.19-.6-.62-.14-1.9-.15-1.98,1.8-1.87,1.19,.07,1.37-.33,1.37-1.42-.03-27.31-.03-54.63,0-81.94,0-1.08-.17-1.63-1.36-1.39-.15,.03-.31,0-.47,0-1.21,0-1.77-.92-1.33-2.1,.15-.39,.44-.26,.68-.26,3.92,0,7.85,0,11.77-.02,.56,0,.8,.15,.72,.73-.03,.23,0,.47,0,.71,0,14.07,0,28.14,0,42.21Zm-7.52,1.11c0,13.67,0,27.34,0,41.01,0,.27,0,.55,0,.82,0,.19-.03,.47,.21,.48,.7,.03,1.44,.11,2.1-.07,.45-.12,.2-.77,.2-1.17,.01-27.42,0-54.84,.04-82.26,0-1.14-.41-1.19-1.33-1.24-1.09-.06-1.24,.32-1.24,1.3,.03,13.71,.02,27.42,.02,41.13Z" fill="#fff"/>
      <path d="M170.17,43.57c0,14.07,.01,28.14-.02,42.21,0,1.02,.18,1.55,1.3,1.33,.15-.03,.31,0,.47,0,1.44,0,1.97,.78,1.53,2.17-.12,.39-.38,.33-.64,.33-5.06,0-10.13,0-15.19,0-.44,0-.59-.14-.63-.6-.17-1.88-.15-1.99,1.68-1.89,1.17,.06,1.56-.2,1.56-1.49-.04-27.31-.04-54.63,0-81.94,0-1.06-.25-1.52-1.33-1.32-.19,.03-.4,.03-.59,0-.43-.08-1.08,.28-1.25-.26-.18-.57-.09-1.25-.02-1.87,.04-.35,.45-.22,.7-.22,3.92,0,7.85,0,11.77-.01,.5,0,.74,.11,.67,.65-.03,.23,0,.47,0,.71,0,14.07,0,28.14,0,42.21Zm-7.46,1.13v9.67c0,10.53,0,21.06,0,31.59,0,.36-.23,.95,.19,1.06,.63,.16,1.34,.17,1.97,.03,.55-.13,.25-.75,.25-1.13,.02-27.42,.01-54.85,.01-82.27,0-.28,.02-.55-.01-.82-.01-.14-.11-.38-.18-.38-.66-.03-1.36-.15-1.98,0-.53,.12-.25,.74-.26,1.13-.01,13.71-.01,27.42-.01,41.14Z" fill="#fff"/>
      <path d="M139.13,102.66c-1.14,.34-1.77,.04-1.93-1.07-.04-.3-.18-.6-.29-.89-.11-.3-.24-.61-.66-.5-.39,.11-.23,.44-.24,.68-.03,.39-.04,.79,0,1.18,.06,.58-.2,.73-.75,.73-.56,0-.75-.17-.75-.74,.03-1.73,0-3.45,.02-5.18,0-.28-.14-.71,.36-.71,.97,0,1.97-.18,2.92,.15,.99,.35,1.51,1.85,.81,2.79-.62,.83-.42,1.44-.04,2.18,.21,.41,.35,.86,.55,1.37Zm-3.12-4.53c.1,.27-.29,.88,.48,.85,.53-.02,.92-.23,.93-.81,0-.54-.3-.81-.87-.84-.62-.04-.58,.34-.55,.8Z" fill="#fff"/>
      <path d="M175.64,96.25c-1.74,1.78-1.27,3.59-.19,5.43,.17,.28,.38,.6,.32,1.03-2.33,.49-1.57-1.92-2.59-2.72-.7,.47-.4,1.23-.42,1.87-.01,.58-.03,.95-.8,.94-.74,0-.7-.41-.7-.91,0-1.65,.03-3.3,0-4.95-.01-.61,.14-.81,.78-.82,.71-.01,.75,.34,.72,.87-.03,.45,0,.9,0,1.46,1.09-.75,.94-2.85,2.9-2.21Z" fill="#fff"/>
      <path d="M150.29,99.44c-.09,.58-.14,1.21-.31,1.81-.3,1.07-1.02,1.6-2.16,1.6-1.17,0-1.81-.64-2.12-1.67-.33-1.11-.34-2.24-.04-3.37,.3-1.12,.98-1.76,2.16-1.79,1.2-.02,1.89,.65,2.19,1.75,.15,.52,.18,1.08,.27,1.67Zm-3.27,.04c.05,.5,.08,1.01,.17,1.5,.07,.36,.27,.71,.7,.66,.38-.04,.58-.34,.65-.73,.17-.98,.16-1.95,0-2.92-.07-.41-.29-.67-.67-.7-.43-.04-.63,.3-.69,.66-.09,.5-.11,1.01-.16,1.53Z" fill="#fff"/>
      <path d="M162.42,99.44c0-.08,0-.16,0-.24,0-3.36,0-3.35,3.44-3.07,.43,.04,.65,.11,.63,.59-.01,.43-.12,.66-.6,.63-.39-.03-.78,.02-1.17-.01-.56-.04-.84,.08-.85,.75,0,.69,.3,.78,.84,.73,.23-.02,.47,.01,.7,0,.43-.03,.52,.19,.51,.57,0,.36-.06,.61-.5,.59-.35-.02-.71,0-1.06,0-.58-.02-.46,.4-.46,.73,0,.33-.12,.76,.44,.76,.51,0,1.02,.03,1.53,0,.46-.03,.62,.16,.62,.61,0,.48-.11,.72-.66,.7-.94-.04-1.88-.03-2.82,0-.46,0-.61-.19-.6-.63,.02-.9,0-1.8,0-2.71Z" fill="#fff"/>
      <path d="M159.16,102.84c-.81,.07-1.46-.31-1.88-1.05-.13-.23-.6-.6-.02-.85,.34-.14,.79-.54,1.1,.06,.14,.26,.31,.46,.57,.57,.42,.18,.8,.06,1.03-.3,.28-.43,.02-.76-.36-.95-.38-.2-.79-.33-1.19-.49-.93-.38-1.29-1.09-1.18-2.06,.09-.89,.63-1.45,1.44-1.66,.93-.25,1.81-.07,2.41,.76,.14,.2,.55,.54,.14,.77-.33,.19-.75,.71-1.19,.09-.11-.15-.27-.28-.44-.37-.33-.18-.62-.05-.83,.21-.27,.35-.03,.6,.25,.77,.33,.2,.71,.33,1.06,.49,1.22,.55,1.64,1.25,1.4,2.37-.22,1.05-1.03,1.64-2.32,1.64Z" fill="#fff"/>
      <path d="M124.63,99.37c0-.74,.06-1.49-.02-2.23-.09-.87,.27-1.1,1.06-1,.38,.05,.78,0,1.17,.01,1.49,.08,2.07,.62,2.11,1.94,.05,1.47-.46,2.13-1.95,2.18-.86,.03-.97,.39-.9,1.06,.03,.27-.02,.55,0,.82,.05,.57-.28,.62-.73,.62-.42,0-.81,0-.75-.59,0-.04,0-.08,0-.12,0-.9,0-1.8,0-2.7Zm1.47-1.13c.1,.33-.26,.92,.51,.89,.62-.03,.76-.41,.75-.94,0-.5-.19-.81-.74-.84-.76-.04-.45,.53-.53,.89Z" fill="#fff"/>
      <path d="M186.72,99.5c0-.74,.07-1.5-.02-2.23-.12-.99,.31-1.23,1.18-1.12,.42,.05,.86,0,1.29,.03,1.29,.11,1.92,.77,1.94,2.02,.02,1.28-.55,2.06-1.85,2.06-1.26,0-1.02,.75-1.01,1.45,0,.62,.06,1.19-.87,1.09-.51-.05-.68-.22-.66-.71,.03-.86,0-1.72,0-2.59Zm2-2.14c-.63-.05-.5,.45-.46,.8,.04,.35-.32,.95,.45,.96,.62,.01,.8-.37,.79-.92,0-.5-.2-.83-.79-.85Z" fill="#fff"/>
      <path d="M176.07,99.45c-.05-.76,.04-1.49,.4-2.17,.52-.98,1.36-1.39,2.44-1.24,1.08,.15,1.6,.89,1.81,1.89,.07,.34,.17,.77-.41,.73-.35-.02-.9,.39-.97-.4-.04-.48-.23-1.01-.82-.96-.67,.06-.83,.65-.84,1.23-.01,.74-.02,1.49,.03,2.23,.03,.39,.24,.77,.68,.86,.49,.1,.79-.27,.84-.63,.15-.99,.91-.71,1.32-.52,.48,.23,.1,.75-.06,1.11-.35,.78-.94,1.21-1.82,1.26-.9,.06-1.61-.25-2.09-1.02-.45-.73-.58-1.53-.53-2.37Z" fill="#fff"/>
      <path d="M133.25,102.76c-.48,.08-.9-.03-.92-.59-.03-.81-.54-.77-1.12-.78-.61-.01-1.08,.03-1.11,.81-.03,.71-.62,.65-1.05,.55-.6-.14-.17-.57-.1-.83,.47-1.69,.98-3.37,1.46-5.05,.15-.52,.39-.75,.98-.73,.55,.02,.8,.16,.95,.74,.44,1.74,.96,3.45,1.47,5.17,.16,.55,.08,.84-.57,.73Zm-2.05-5.19c-.23,1-.42,1.79-.62,2.64,.45,0,.83,.11,1.26-.08-.2-.78-.39-1.56-.65-2.56Z" fill="#fff"/>
      <path d="M201.97,102.75c-.62,.11-.95-.07-1-.69-.06-.7-.57-.7-1.1-.67-.48,.03-1.04-.14-1.08,.66-.03,.66-.51,.89-1.06,.69-.63-.24-.16-.71-.06-1.05,.46-1.61,.98-3.21,1.41-4.83,.15-.58,.41-.72,.97-.74,.59-.02,.82,.21,.96,.75,.46,1.73,.94,3.46,1.45,5.18,.17,.56,.14,.86-.49,.69Zm-1.45-2.58c-.2-.76-.38-1.42-.6-2.26-.89,2.22-.85,2.37,.6,2.26Z" fill="#fff"/>
      <path d="M186.21,102.72c-.79,.02-1.59,.41-1.72-.83-.08-.78-.79-.42-1.24-.48-.46-.06-.85-.02-.87,.62-.02,.67-.49,.91-1.05,.72-.67-.22-.18-.71-.08-1.04,.46-1.66,.98-3.3,1.43-4.96,.15-.56,.48-.62,.96-.6,.41,.02,.75,0,.89,.52,.53,2,1.11,3.99,1.69,6.05Zm-2.13-2.56c-.2-.8-.38-1.55-.63-2.54-.17,.69-.24,1.15-.41,1.57-.41,1.03,.02,1.22,1.04,.97Z" fill="#fff"/>
      <path d="M151.25,99.46c0-.16-.01-.32,0-.47,.09-.92-.44-2.31,.21-2.67,.85-.47,2.13-.14,3.22-.17,.45-.02,.52,.23,.51,.59-.01,.33-.01,.64-.48,.62-.35-.02-.71,.01-1.06,0-.53-.03-.96-.07-.95,.74,0,.73,.21,.97,.93,.91,.38-.03,.98-.3,1,.55,.02,.8-.52,.67-.95,.62-.77-.09-1.07,.19-.96,.96,.05,.35-.02,.71,.01,1.06,.05,.6-.33,.59-.75,.6-.45,0-.76-.04-.74-.62,.03-.9,0-1.81,0-2.71Z" fill="#fff"/>
      <path d="M194.92,100.01c0-.55-.02-1.09,0-1.64,.02-.58,.05-1.11-.81-.96-.57,.1-.46-.36-.48-.69-.02-.38,.09-.58,.52-.57,.98,.02,1.95,.02,2.93,0,.42,0,.63,.1,.63,.58,0,.47-.08,.78-.62,.68-.73-.13-.71,.34-.7,.84,.02,1.25-.03,2.5,.02,3.75,.02,.64-.22,.79-.81,.79-.62,0-.7-.29-.68-.79,.03-.66,0-1.33,0-1.99Z" fill="#fff"/>
      <path d="M140.56,100.05c0-.59-.03-1.18,0-1.76,.04-.6-.04-.99-.79-.88-.59,.09-.44-.37-.47-.69-.03-.37,.07-.58,.51-.57,.98,.02,1.95,.03,2.93,0,.48-.01,.6,.18,.58,.62-.02,.37,.02,.74-.52,.65-.69-.12-.75,.27-.74,.81,.03,1.21-.01,2.43,.02,3.64,.01,.59-.04,.94-.79,.94-.81,0-.75-.46-.74-.99,.01-.59,0-1.17,0-1.76Z" fill="#fff"/>
      <path d="M203.17,99.35c0-.79,.02-1.57,0-2.35-.02-.54,.03-.87,.73-.86,.64,0,.79,.23,.77,.82-.04,1.14,.05,2.28-.03,3.41-.06,.88,.18,1.2,1.08,1.1,.41-.04,1.05-.32,1.08,.59,.03,.96-.62,.7-1.11,.71-2.5,.02-2.5,.02-2.5-2.48,0-.31,0-.63,0-.94Z" fill="#fff"/>
      <path d="M167.11,99.4c0-.82,.04-1.65-.01-2.47-.04-.6,.14-.81,.77-.81,.64,0,.68,.3,.67,.79-.02,1.14,.06,2.28-.03,3.41-.07,.93,.23,1.27,1.14,1.12,.67-.11,1.38,.14,.95,.86-.65,1.07-1.88,.24-2.83,.46-.51,.12-.68-.15-.66-.66,.03-.9,0-1.8,0-2.7Z" fill="#fff"/>
      <path d="M193.23,99.54c0,.86-.03,1.72,.01,2.58,.03,.64-.32,.66-.8,.67-.49,0-.7-.13-.7-.66,.02-1.8,.03-3.59,0-5.39-.01-.61,.33-.59,.74-.59,.4,0,.78-.04,.75,.58-.04,.94,0,1.87,0,2.81Z" fill="#fff"/>
      <path d="M39.78,85.19s.06,0,.08,0c.02,.02,.05,.06,.04,.08-.05,.11-.12,.1-.16,0,0-.02,.03-.05,.04-.08Z" fill="#fff"/>
      <path d="M54.15,26.55c-.08-.11-.19-.24-.01-.34,.03-.02,.14,.1,.22,.16-.07,.06-.14,.12-.21,.18Z" fill="#fff"/>
      <path d="M6.08,84.85c.2,.12,.22,.28,.11,.47-.11-.09-.21-.17-.32-.26,.07-.07,.14-.15,.21-.22Z" fill="#fff"/>
      <path d="M144.28,26.17c-.08,.09-.16,.09-.22-.02-.01-.02,.01-.07,.02-.1,.06,.05,.12,.1,.18,.15,0,0,.02-.03,.02-.03Z" fill="#fff"/>
    </g>
  </g>
</svg>