<?xml version="1.0" encoding="UTF-8"?>
<svg id="b" data-name="Layer 2" xmlns="http://www.w3.org/2000/svg" width="1086.45" height="617.15" viewBox="0 0 1086.45 617.15">
  <g id="c" data-name="Layer 1">
    <g>
      <g>
        <path d="M271.27,134.53c11.87,0,22.2,1.9,31,5.7,8.8,3.8,16.17,8.87,22.1,15.2,5.93,6.33,10.37,13.67,13.3,22,2.93,8.33,4.4,17.03,4.4,26.1s-1.5,18.73-4.5,28.2c-3,9.47-7.43,17.93-13.3,25.4-5.87,7.47-13.23,13.57-22.1,18.3-8.87,4.73-19.17,7.1-30.9,7.1s-22.03-1.93-30.9-5.8c-8.87-3.87-16.27-9.07-22.2-15.6-5.93-6.53-10.37-14.1-13.3-22.7-2.93-8.6-4.4-17.57-4.4-26.9s1.5-18.37,4.5-27.5c3-9.13,7.43-17.37,13.3-24.7,5.87-7.33,13.23-13.3,22.1-17.9,8.87-4.6,19.17-6.9,30.9-6.9Zm16.2,138.4c2.53,0,5.1-.93,7.7-2.8,2.6-1.87,4.43-4.13,5.5-6.8,1.07-2.67,1-5.43-.2-8.3-1.2-2.87-4.4-5.3-9.6-7.3-8-3.07-13.63-6.97-16.9-11.7-3.27-4.73-5.07-9.97-5.4-15.7-.33-5.73,.37-11.73,2.1-18,1.73-6.27,3.63-12.37,5.7-18.3,2.07-5.93,3.83-11.53,5.3-16.8,1.47-5.27,1.77-9.77,.9-13.5-.87-3.73-3.37-6.5-7.5-8.3-4.13-1.8-10.73-2.23-19.8-1.3-4.8,.53-8.23,2.93-10.3,7.2-2.07,4.27-3.1,10.07-3.1,17.4,0,6.27,.67,13.17,2,20.7,1.33,7.53,3.13,15.17,5.4,22.9,2.27,7.73,4.93,15.23,8,22.5,3.07,7.27,6.27,13.73,9.6,19.4,3.33,5.67,6.77,10.2,10.3,13.6,3.53,3.4,6.97,5.1,10.3,5.1Z" fill="#fff"/>
        <path d="M357.07,128.33c3.6-1.07,7.7-1.97,12.3-2.7,4.6-.73,8.97-1.1,13.1-1.1s7.63,.43,10.5,1.3c2.87,.87,4.3,2.43,4.3,4.7v126.6c0,3.6,.03,6.67,.1,9.2,.07,2.53,.2,4.67,.4,6.4,.2,1.73,.53,3.2,1,4.4,.47,1.2,1.1,2.33,1.9,3.4h-46c-.8-1.07-1.43-2.23-1.9-3.5-.47-1.27-.8-2.8-1-4.6-.2-1.8-.33-3.93-.4-6.4-.07-2.47-.1-5.43-.1-8.9v-120.8c0-1.33-.07-2.37-.2-3.1-.13-.73-.6-1.63-1.4-2.7l7.4-2.2Z" fill="#fff"/>
        <path d="M408.87,138.53c0-5.6,2.33-10.3,7-14.1,4.67-3.8,10.73-5.7,18.2-5.7s13.57,1.9,18.3,5.7c4.73,3.8,7.1,8.5,7.1,14.1,0,2.8-.63,5.4-1.9,7.8-1.27,2.4-3.03,4.5-5.3,6.3-2.27,1.8-4.93,3.23-8,4.3-3.07,1.07-6.47,1.6-10.2,1.6s-7.13-.53-10.2-1.6c-3.07-1.07-5.7-2.5-7.9-4.3-2.2-1.8-3.93-3.9-5.2-6.3-1.27-2.4-1.9-5-1.9-7.8Zm.6,32c5.07,0,10.4-.77,16-2.3,5.6-1.53,10.77-2.93,15.5-4.2,4.73-1.27,8.63-1.97,11.7-2.1,3.07-.13,4.6,1.2,4.6,4,.13,19.2,.27,38.3,.4,57.3,.13,19,.67,38.1,1.6,57.3h-50.2c1.07-17.6,1.67-35.07,1.8-52.4,.13-17.33,.2-34.8,.2-52.4,0-.93-.1-1.8-.3-2.6-.2-.8-.63-1.67-1.3-2.6Z" fill="#fff"/>
        <path d="M541.87,265.33c1.73-10.27,2.8-18.83,3.2-25.7,.4-6.87,.3-12.57-.3-17.1-.6-4.53-1.5-8.17-2.7-10.9-1.2-2.73-2.54-5.17-4-7.3-1.47-2.13-2.93-4.2-4.4-6.2-1.47-2-2.73-4.53-3.8-7.6-1.07-3.07-1.77-6.97-2.1-11.7-.33-4.73-.1-10.83,.7-18.3h52.4c-6.67,20.13-12.8,40.13-18.4,60-5.6,19.87-10.53,39.87-14.8,60h-51.2c-4.93-19.6-10.17-39.47-15.7-59.6-5.53-20.13-11.9-40.27-19.1-60.4h50.4c1.6,10,3.3,19.43,5.1,28.3,1.8,8.87,3.83,17.5,6.1,25.9,2.27,8.4,4.93,16.73,8,25,3.07,8.27,6.6,16.8,10.6,25.6Z" fill="#fff"/>
        <path d="M690.67,223.33c1.87,2.53,3.13,5.03,3.8,7.5,.67,2.47,1,4.97,1,7.5,0,5.73-1.37,11.27-4.1,16.6-2.73,5.33-6.57,10.03-11.5,14.1-4.93,4.07-10.73,7.33-17.4,9.8-6.67,2.47-13.93,3.7-21.8,3.7-10.13,0-18.83-1.67-26.1-5-7.27-3.33-13.2-7.73-17.8-13.2-4.6-5.47-7.97-11.73-10.1-18.8-2.13-7.07-3.2-14.4-3.2-22s1.13-15.47,3.4-23.2c2.27-7.73,5.8-14.7,10.6-20.9,4.8-6.2,10.97-11.23,18.5-15.1,7.53-3.87,16.57-5.8,27.1-5.8,7.46,0,13.96,.67,19.5,2,5.53,1.33,10.13,3.1,13.8,5.3,3.67,2.2,6.43,4.77,8.3,7.7,1.87,2.93,2.8,6,2.8,9.2,0,5.33-1.4,10.17-4.2,14.5-2.8,4.33-6.63,8.13-11.5,11.4-4.87,3.27-10.53,6.03-17,8.3-6.47,2.27-13.37,4-20.7,5.2,1.33,2.8,2.73,5.47,4.2,8,1.47,2.53,3.2,4.73,5.2,6.6,2,1.87,4.33,3.37,7,4.5,2.67,1.13,5.87,1.7,9.6,1.7,6.8,0,12.87-1.67,18.2-5,5.33-3.33,9.47-8.2,12.4-14.6Zm-60.8-8.2c2.27-1.47,4.5-3.2,6.7-5.2,2.2-2,4.17-4.2,5.9-6.6,1.73-2.4,3.1-5,4.1-7.8s1.5-5.8,1.5-9c0-5.2-1.47-9.53-4.4-13-2.93-3.47-6.6-5.2-11-5.2-3.47,0-5.97,1.67-7.5,5-1.53,3.33-2.3,7.4-2.3,12.2s.67,9.9,2,15.3c1.33,5.4,3,10.17,5,14.3Z" fill="#fff"/>
        <path d="M816.87,164.93c0,5.6-.63,10.8-1.9,15.6-1.27,4.8-2.93,9-5,12.6-2.07,3.6-4.53,6.43-7.4,8.5-2.87,2.07-5.9,3.1-9.1,3.1-.8-4.13-2.03-7.87-3.7-11.2-1.67-3.33-3.63-6.13-5.9-8.4-2.27-2.27-4.7-4.03-7.3-5.3-2.6-1.27-5.23-1.9-7.9-1.9-2.4,0-4.7,.73-6.9,2.2-2.2,1.47-4.17,3.73-5.9,6.8-1.73,3.07-3.1,7-4.1,11.8-1,4.8-1.5,10.53-1.5,17.2v52c0,2.13,.07,4.23,.2,6.3,.13,2.07,.73,4.17,1.8,6.3h-50c1.07-2.13,1.67-4.27,1.8-6.4,.13-2.13,.2-4.27,.2-6.4v-102c3.6-1.33,8.03-2.67,13.3-4,5.27-1.33,10.33-2.3,15.2-2.9,4.87-.6,9-.67,12.4-.2,3.4,.47,5.1,1.83,5.1,4.1v19.6c5.73-8,12.63-13.97,20.7-17.9,8.07-3.93,15.83-5.9,23.3-5.9,4.53,0,8.73,.5,12.6,1.5,3.87,1,7.2,2.63,10,4.9Z" fill="#fff"/>
      </g>
      <g>
        <path d="M178.87,448.22v-139c-3.87,1.73-7.43,4.03-10.7,6.9-3.27,2.87-6.4,6.07-9.4,9.6-3,3.53-5.93,7.4-8.8,11.6-2.87,4.2-5.83,8.5-8.9,12.9h-1v-46h126.2v46h-.8c-3.07-4.53-6.04-8.87-8.9-13-2.87-4.13-5.8-7.97-8.8-11.5-3-3.53-6.17-6.7-9.5-9.5-3.33-2.8-6.93-5.13-10.8-7v139h-48.6Z" fill="#fff"/>
        <path d="M392.07,424.22c0,5.6,.2,10.3,.6,14.1,.4,3.8,1.8,7.1,4.2,9.9h-41.4c-2.4-.8-4.23-2.37-5.5-4.7-1.27-2.33-2.04-5.03-2.3-8.1-2.67,4.53-6.33,8.13-11,10.8-4.67,2.67-10.27,4-16.8,4-7.33,0-13.87-1.13-19.6-3.4-5.73-2.27-10.6-5.2-14.6-8.8-4-3.6-7.03-7.63-9.1-12.1-2.07-4.47-3.1-8.97-3.1-13.5,0-5.87,1.77-10.9,5.3-15.1,3.53-4.2,7.97-7.93,13.3-11.2,5.33-3.27,11.07-6.23,17.2-8.9,6.13-2.67,11.87-5.43,17.2-8.3,5.33-2.87,9.77-6.03,13.3-9.5,3.53-3.47,5.3-7.53,5.3-12.2,0-1.07-.1-2.23-.3-3.5-.2-1.27-.6-2.5-1.2-3.7-.6-1.2-1.4-2.2-2.4-3-1-.8-2.23-1.2-3.7-1.2-2.27,0-4.37,1.6-6.3,4.8-1.93,3.2-4.27,6.73-7,10.6-2.73,3.87-6.13,7.4-10.2,10.6-4.07,3.2-9.3,4.8-15.7,4.8-3.6,0-6.63-.5-9.1-1.5-2.47-1-4.5-2.37-6.1-4.1-1.6-1.73-2.7-3.67-3.3-5.8-.6-2.13-.83-4.33-.7-6.6,.27-2.8,1.6-5.53,4-8.2,2.4-2.67,5.83-5.07,10.3-7.2,4.46-2.13,9.9-3.83,16.3-5.1,6.4-1.27,13.73-1.9,22-1.9,10.4,0,19.4,.97,27,2.9,7.6,1.93,13.87,4.37,18.8,7.3,4.93,2.93,8.6,6.17,11,9.7,2.4,3.53,3.6,6.9,3.6,10.1v68Zm-46.2-56.8c-3.47,3.2-6.8,6.7-10,10.5-3.2,3.8-6,7.63-8.4,11.5-2.4,3.87-4.33,7.73-5.8,11.6-1.47,3.87-2.2,7.54-2.2,11,0,2.67,.2,5.33,.6,8,.4,2.67,1.13,5.1,2.2,7.3,1.07,2.2,2.53,3.97,4.4,5.3,1.87,1.33,4.2,2,7,2,5.07,0,8.37-1.33,9.9-4,1.53-2.67,2.3-6.73,2.3-12.2v-51Z" fill="#fff"/>
        <path d="M412.07,296.02c3.6-1.07,7.7-1.96,12.3-2.7,4.6-.73,8.96-1.1,13.1-1.1s7.63,.43,10.5,1.3c2.87,.87,4.3,2.43,4.3,4.7v126.6c0,3.6,.03,6.67,.1,9.2,.06,2.54,.2,4.67,.4,6.4,.2,1.73,.53,3.2,1,4.4,.47,1.2,1.1,2.33,1.9,3.4h-46c-.8-1.07-1.43-2.23-1.9-3.5-.47-1.27-.8-2.8-1-4.6s-.33-3.93-.4-6.4c-.07-2.47-.1-5.43-.1-8.9v-120.8c0-1.33-.07-2.37-.2-3.1-.13-.73-.6-1.63-1.4-2.7l7.4-2.2Z" fill="#fff"/>
        <path d="M569.07,390.02c1.6,2.67,2.7,5.37,3.3,8.1,.6,2.73,.9,5.37,.9,7.9,0,5.73-1.37,11.27-4.1,16.6-2.73,5.33-6.57,10.03-11.5,14.1-4.93,4.07-10.73,7.33-17.4,9.8-6.67,2.47-13.93,3.7-21.8,3.7-10.13,0-18.83-1.67-26.1-5-7.27-3.33-13.2-7.73-17.8-13.2-4.6-5.46-7.97-11.73-10.1-18.8-2.13-7.07-3.2-14.4-3.2-22s1.13-15.47,3.4-23.2c2.27-7.73,5.8-14.7,10.6-20.9,4.8-6.2,10.97-11.23,18.5-15.1,7.53-3.87,16.57-5.8,27.1-5.8,7.47,0,13.8,.67,19,2,5.2,1.33,9.53,3.07,13,5.2,3.47,2.13,6.17,4.6,8.1,7.4,1.93,2.8,3.37,5.67,4.3,8.6,1.2,4,1.43,7.9,.7,11.7-.73,3.8-2.3,6.97-4.7,9.5-2.4,2.53-5.6,4.17-9.6,4.9-4,.73-8.6-.03-13.8-2.3-3.2-1.47-6-3.37-8.4-5.7-2.4-2.33-4.47-4.9-6.2-7.7-1.73-2.8-3.23-5.6-4.5-8.4-1.27-2.8-2.5-5.33-3.7-7.6-1.2-2.27-2.37-4.13-3.5-5.6-1.13-1.47-2.5-2.2-4.1-2.2-1.87,0-3.4,1.3-4.6,3.9s-1.8,7.1-1.8,13.5c0,5.6,.67,11.7,2,18.3,1.33,6.6,3.4,12.8,6.2,18.6,2.8,5.8,6.33,10.63,10.6,14.5,4.27,3.87,9.33,5.8,15.2,5.8,8.13,0,14.9-1.47,20.3-4.4,5.4-2.93,9.97-8.33,13.7-16.2Z" fill="#fff"/>
        <path d="M642.67,326.22c11.07,0,20.67,1.7,28.8,5.1,8.13,3.4,14.87,7.9,20.2,13.5,5.33,5.6,9.3,11.97,11.9,19.1,2.6,7.13,3.9,14.5,3.9,22.1,0,8-1.4,15.83-4.2,23.5-2.8,7.67-6.93,14.5-12.4,20.5-5.47,6-12.23,10.87-20.3,14.6-8.07,3.73-17.37,5.6-27.9,5.6s-20.47-1.73-28.6-5.2c-8.13-3.46-14.87-8.03-20.2-13.7-5.33-5.67-9.33-12.13-12-19.4-2.67-7.27-4-14.7-4-22.3s1.37-15.6,4.1-23.2c2.73-7.6,6.83-14.37,12.3-20.3,5.47-5.93,12.23-10.73,20.3-14.4,8.07-3.67,17.43-5.5,28.1-5.5Zm14.2,114.4c2.13,0,4.2-.53,6.2-1.6,2-1.07,3.3-2.53,3.9-4.4,.6-1.87,.13-4.03-1.4-6.5-1.53-2.47-4.9-5.1-10.1-7.9-5.87-3.07-9.97-6.77-12.3-11.1-2.33-4.33-3.6-8.9-3.8-13.7-.2-4.8,.4-9.77,1.8-14.9,1.4-5.13,2.87-10.07,4.4-14.8,1.53-4.73,2.83-9.13,3.9-13.2,1.07-4.07,1.2-7.5,.4-10.3-.8-2.8-2.8-4.8-6-6-3.2-1.2-8.33-1.33-15.4-.4-4.27,.67-7.27,2.43-9,5.3-1.73,2.87-2.6,6.97-2.6,12.3,0,4.93,.67,10.53,2,16.8,1.33,6.27,3.13,12.63,5.4,19.1,2.27,6.47,4.8,12.77,7.6,18.9,2.8,6.13,5.7,11.6,8.7,16.4s5.9,8.67,8.7,11.6c2.8,2.93,5.33,4.4,7.6,4.4Z" fill="#fff"/>
        <path d="M727.87,313.83c2.27-3.73,5.1-6.53,8.5-8.4,3.4-1.87,6.87-3.2,10.4-4,3.53-.8,6.93-1.2,10.2-1.2h7.9v28h14.2v8.4h-14.2v77.6c0,4.4,.43,8.13,1.3,11.2,.87,3.07,1.97,5.57,3.3,7.5,1.33,1.93,2.83,3.33,4.5,4.2,1.67,.87,3.3,1.3,4.9,1.3v7.8c-3.07,.67-5.73,1.17-8,1.5-2.27,.33-5.2,.5-8.8,.5-7.2,0-13.5-1.17-18.9-3.5-5.4-2.33-9.9-5.3-13.5-8.9-3.6-3.6-6.3-7.67-8.1-12.2-1.8-4.53-2.7-9-2.7-13.4v-73.6h-5.4v-8.4c1.87,0,3.43-.43,4.7-1.3,1.27-.87,2.43-1.97,3.5-3.3,1.07-1.33,2.1-2.87,3.1-4.6,1-1.73,2.03-3.46,3.1-5.2Z" fill="#fff"/>
        <path d="M788.27,304.22c1.87-1.07,4.3-2.3,7.3-3.7,3-1.4,6.2-2.73,9.6-4,3.4-1.27,6.83-2.3,10.3-3.1,3.47-.8,6.6-1.1,9.4-.9,2.8,.2,5.07,1.07,6.8,2.6,1.73,1.53,2.6,4.03,2.6,7.5v45.4c5.2-7.33,11.4-12.8,18.6-16.4,7.2-3.6,14.47-5.4,21.8-5.4,5.2,0,10.17,.93,14.9,2.8,4.73,1.87,8.93,4.7,12.6,8.5,3.67,3.8,6.6,8.57,8.8,14.3,2.2,5.73,3.3,12.47,3.3,20.2v66.6c0,1.6,.07,3.2,.2,4.8,.13,1.6,.73,3.2,1.8,4.8h-50.4c1.07-1.6,1.67-3.2,1.8-4.8,.13-1.6,.2-3.2,.2-4.8v-59.6c0-11.33-1.67-19.9-5-25.7-3.33-5.8-7.07-8.7-11.2-8.7-2.13,0-4.23,.8-6.3,2.4-2.07,1.6-3.93,4.04-5.6,7.3-1.67,3.27-3,7.33-4,12.2-1,4.87-1.5,10.57-1.5,17.1v55c0,1.6,.07,3.2,.2,4.8,.13,1.6,.73,3.2,1.8,4.8h-50c1.07-1.6,1.67-3.2,1.8-4.8,.13-1.6,.2-3.2,.2-4.8v-134.4Z" fill="#fff"/>
      </g>
      <path d="M895.28,253.63c-1.36,.22-2.72,.43-4.08,.66-5.63,.97-11.21,2.13-16.63,3.99-1.59,.55-3.13,1.21-4.63,1.97-2.11,1.08-3.61,2.71-4.66,4.81-1.26,2.52-2.15,5.17-2.92,7.86-1.06,3.71-1.86,7.47-2.56,11.26-.36,1.98-.69,3.97-.98,6.06-.14-.5-.15-.93-.21-1.36-.94-6.55-2.09-13.06-4.12-19.37-.66-2.05-1.45-4.04-2.55-5.9-.92-1.57-2.23-2.69-3.81-3.53-2.19-1.17-4.52-1.98-6.89-2.68-3.77-1.11-7.6-1.93-11.46-2.61-2.43-.43-4.87-.82-7.32-1.13-.03,0-.05-.02-.08-.03,.07-.08,.16-.07,.24-.07,2.46-.17,4.91-.41,7.35-.71,5.2-.66,10.39-1.44,15.41-3,1.85-.57,3.65-1.26,5.28-2.32,1.28-.83,2.13-2.02,2.81-3.35,1.07-2.11,1.75-4.37,2.33-6.65,.91-3.62,1.53-7.29,2.02-10.99,.37-2.81,.67-5.63,.9-8.46,.03-.32,0-.64,.1-1,.19,1.3,.35,2.56,.55,3.81,.97,6.12,2.11,12.21,4.1,18.1,.46,1.36,1.02,2.67,1.64,3.97,1.06,2.23,2.7,3.84,4.93,4.9,2.44,1.15,4.99,1.97,7.6,2.65,3.83,1,7.72,1.7,11.63,2.3,1.95,.3,3.91,.55,5.87,.76,.05,0,.1,.02,.14,.03,0,.01,0,.03,0,.04Z" fill="#fff"/>
      <path d="M916.73,204.84c-.8,.13-1.6,.25-2.39,.39-3.49,.61-6.95,1.32-10.28,2.54-.82,.3-1.62,.65-2.38,1.07-1.05,.58-1.84,1.4-2.4,2.46-.94,1.76-1.53,3.65-2.05,5.57-.84,3.09-1.4,6.23-1.93,9.4-.09-.6-.17-1.19-.26-1.79-.51-3.4-1.15-6.77-2.18-10.06-.32-1.02-.71-2.01-1.17-2.98-.64-1.35-1.62-2.34-2.97-2.98-1.87-.9-3.85-1.49-5.86-1.98-2.84-.69-5.7-1.21-8.6-1.58-.11-.01-.22-.05-.42-.09,1.61-.13,3.12-.27,4.63-.46,3.39-.44,6.77-.94,10-2.11,.24-.09,.48-.2,.72-.29,1.87-.69,2.88-2.14,3.53-3.94,.69-1.91,1.13-3.88,1.49-5.87,.52-2.83,.83-5.69,1.06-8.56,0-.05,.01-.1,.03-.25,.15,.97,.27,1.84,.41,2.72,.61,3.71,1.3,7.4,2.62,10.94,.29,.77,.64,1.5,1.05,2.22,.64,1.13,1.65,1.82,2.79,2.34,1.82,.84,3.74,1.36,5.68,1.8,2.88,.65,5.79,1.09,8.72,1.44,.05,0,.09,.01,.14,.02,0,.01,0,.02,0,.04Z" fill="#fff"/>
      <g>
        <path d="M11.89,284.42c-.3,1.77-.34,3.4-.12,4.9,.25,1.64,.71,2.89,1.4,3.76,.69,.87,1.49,1.24,2.41,1.1,.58-.09,1.05-.38,1.42-.88,.37-.5,.64-1.44,.81-2.81l.4-3c.17-1.38,.46-2.53,.86-3.45s.93-1.64,1.61-2.17c.68-.53,1.51-.87,2.48-1.01,1.92-.29,3.56,.29,4.91,1.73,1.36,1.44,2.22,3.41,2.59,5.89,.37,2.47,.3,4.57-.2,6.29l-2.69-.19c.55-1.81,.67-3.68,.38-5.61-.25-1.67-.77-2.99-1.55-3.94-.78-.96-1.69-1.36-2.72-1.2-.7,.1-1.28,.46-1.75,1.06-.47,.6-.86,1.92-1.16,3.94-.24,1.63-.43,2.83-.56,3.6-.13,.77-.38,1.5-.75,2.2-.37,.7-.85,1.26-1.45,1.69-.59,.43-1.29,.7-2.09,.82-1.74,.26-3.23-.29-4.47-1.66-1.25-1.37-2.06-3.31-2.43-5.82-.24-1.62-.24-3.47,.02-5.53l2.63,.3Z" fill="#fff"/>
        <path d="M6.9,265.31c-.13-2.8,.74-5.07,2.62-6.81,1.87-1.74,4.41-2.69,7.59-2.83,3.21-.15,5.84,.56,7.88,2.12s3.12,3.74,3.25,6.54c.13,2.81-.75,5.08-2.63,6.82-1.88,1.74-4.43,2.68-7.66,2.83-3.2,.15-5.81-.56-7.83-2.12-2.02-1.56-3.1-3.74-3.23-6.54Zm18.69-.87c-.09-1.85-.93-3.27-2.54-4.26-1.61-.99-3.53-1.44-5.75-1.34-2.34,.11-4.24,.72-5.7,1.85s-2.15,2.62-2.06,4.49c.09,1.89,.9,3.31,2.44,4.29,1.54,.97,3.5,1.4,5.88,1.29,2.26-.1,4.14-.72,5.63-1.84,1.49-1.12,2.2-2.62,2.11-4.48Z" fill="#fff"/>
        <path d="M1.08,231.44l2.43,.94c-.5,1.42-.78,2.7-.84,3.85-.06,1.09,.21,1.86,.8,2.3,.59,.44,1.83,.72,3.7,.82l.37,.02,.38-6.83,2.63,.15-.38,6.82,17.69,.99-.17,3.04-17.69-.99-.29,5.11-2.63-.15,.29-5.11-.68-.04c-2.59-.14-4.38-.69-5.37-1.63-.99-.94-1.43-2.5-1.3-4.67,.08-1.4,.43-2.95,1.06-4.64Z" fill="#fff"/>
        <path d="M30.68,209.74c.6,2.17,.75,4.23,.44,6.18-.57,3.59-2.75,5.08-6.55,4.48l-12.29-1.96-.61,3.86-2.6-.41,.61-3.86-5.5-.88,.47-2.93,5.5,.88,1.09-6.83,2.61,.41-1.09,6.83,11.5,1.83c1.22,.19,2.21,.08,2.97-.36,.76-.43,1.21-1.11,1.36-2.04,.26-1.65,.15-3.33-.32-5.06l2.42-.15Z" fill="#fff"/>
        <path d="M18.11,179.92l18.92,8.05-.6,2.25-12.37,1.67,9.9,7.6-.6,2.25-20.41-2.45,.78-2.93c9.46,1.4,14.43,2.13,14.89,2.22l-7.59-5.88,.8-3.02,9.45-1.33-13.98-5.41,.8-3.02Z" fill="#fff"/>
        <path d="M45.23,165.04l-1.07,2.83c-.85-.06-1.92-.33-3.2-.81,1.76,2.52,2.12,5.17,1.06,7.96-.53,1.41-1.51,2.47-2.92,3.17-1.41,.7-2.91,.75-4.49,.15-.94-.35-1.69-.86-2.27-1.51-.58-.65-.97-1.43-1.19-2.35s-.27-1.95-.16-3.11c.11-1.16,.38-2.47,.82-3.95l.95-3.29-.91-.35c-3.26-1.23-5.47-.33-6.62,2.72-.27,.72-.46,1.69-.57,2.91-.11,1.22-.1,2.31,.03,3.26l-2.33-.02c-.35-3.1-.1-5.76,.74-7.99,1.64-4.34,4.76-5.64,9.35-3.9l8.18,3.09c1.66,.63,3.19,1.03,4.6,1.2Zm-6.9,1.19l-3.45-1.31c-.74,2.66-1.19,4.5-1.35,5.53-.16,1.03-.1,2,.18,2.91s.89,1.54,1.83,1.89c.85,.32,1.65,.28,2.4-.11,.75-.4,1.3-1.06,1.65-1.99,.38-1.01,.46-2.13,.24-3.36-.23-1.23-.72-2.42-1.5-3.57Z" fill="#fff"/>
        <path d="M37.56,135.36l2.07,2.41c-1.12,.94-1.9,1.84-2.34,2.72-.4,.8-.56,1.7-.49,2.7,.08,1,.38,2.03,.91,3.11,.53,1.07,.85,1.64,.96,1.69l11.77,5.89-1.36,2.71-18.2-9.11,1.36-2.71,3.69,1.84c-2.02-2.83-2.45-5.41-1.29-7.72,.69-1.37,1.66-2.55,2.93-3.54Z" fill="#fff"/>
        <path d="M59.13,118.72l-7.5,11.78c1.94,1.24,3.91,1.69,5.89,1.37,1.98-.32,3.49-1.3,4.53-2.94,.99-1.56,1.74-3.35,2.23-5.36l2.34,.87c-.28,1.95-1.07,3.93-2.35,5.96-1.62,2.55-3.75,4.08-6.38,4.6-2.63,.52-5.33-.11-8.11-1.87-2.72-1.73-4.45-3.82-5.18-6.25s-.39-4.76,1.02-6.98c1.26-1.98,3.06-3.15,5.41-3.52,2.35-.37,4.78,.24,7.28,1.83l.81,.51Zm-3.88,1.47c-1.34-.85-2.73-1.15-4.18-.9-1.45,.25-2.5,.89-3.16,1.93-.85,1.33-1.11,2.71-.78,4.14,.32,1.43,1.16,2.65,2.52,3.65l5.61-8.82Z" fill="#fff"/>
        <path d="M100.21,86.13c-.23,.57-.64,1.16-1.24,1.77-.48,.49-1.13,.81-1.96,.96-.82,.14-2.12,.1-3.88-.12,.46,3.28-.32,5.95-2.33,8.01-1.61,1.65-3.5,2.53-5.66,2.65s-4.02-.58-5.58-2.1c-1-.97-1.65-2.19-1.96-3.66-.31-1.46-.23-3.56,.23-6.29-3.33-.23-5.67-1-7.02-2.32-1.3-1.27-1.94-2.74-1.91-4.39,.03-1.65,.69-3.14,1.97-4.45,1.19-1.22,2.52-1.89,3.99-2,1.47-.12,2.82,.43,4.05,1.63,.89,.86,1.47,1.96,1.75,3.29s.24,3.27-.12,5.8l9.11,.84c-1-2.22-1.67-3.79-2-4.72s-.45-1.91-.35-2.92c.09-1.02,.58-1.98,1.45-2.87l.11-.11,1.91,1.87-.11,.11c-.56,.57-.78,1.41-.69,2.52,.1,1.11,.91,3.25,2.43,6.41,1.52,.12,2.65,.16,3.4,.12,.75-.04,1.35-.3,1.83-.78,.22-.22,.48-.55,.79-.98l1.78,1.73Zm-21.96-1.48c.31-1.85,.38-3.27,.22-4.28-.16-1.01-.58-1.83-1.24-2.48-.73-.71-1.49-1.02-2.3-.94-.8,.08-1.51,.43-2.12,1.05-.71,.73-1.08,1.55-1.12,2.47-.03,.92,.34,1.76,1.12,2.53,1.01,.98,2.82,1.53,5.43,1.65Zm12.33,3.87l-10.37-.95c-.27,1.88-.29,3.38-.05,4.49,.23,1.11,.76,2.07,1.58,2.87,1.03,1,2.24,1.48,3.64,1.44,1.4-.04,2.59-.56,3.56-1.56,1.52-1.56,2.06-3.65,1.63-6.29Z" fill="#fff"/>
        <path d="M134.64,60.38l-2.52,1.67c-.66-.55-1.37-1.39-2.12-2.53-.04,3.07-1.3,5.43-3.79,7.08-1.26,.84-2.66,1.12-4.22,.87-1.55-.26-2.8-1.09-3.74-2.5-.55-.83-.88-1.68-.96-2.55-.09-.86,.05-1.73,.41-2.6s.92-1.74,1.68-2.62c.76-.87,1.75-1.78,2.97-2.73l2.7-2.12-.54-.81c-1.93-2.91-4.25-3.46-6.96-1.66-.64,.43-1.36,1.1-2.16,2.03-.8,.93-1.42,1.82-1.88,2.66l-1.88-1.38c1.53-2.72,3.28-4.73,5.27-6.05,3.86-2.56,7.15-1.8,9.87,2.29l4.84,7.29c.98,1.48,1.99,2.69,3.04,3.66Zm-6.3-3.06l-2.04-3.08c-2.15,1.73-3.6,2.96-4.33,3.7-.73,.75-1.25,1.57-1.55,2.47-.3,.9-.17,1.77,.38,2.61,.5,.76,1.18,1.2,2.02,1.31,.84,.11,1.67-.1,2.5-.65,.9-.6,1.62-1.46,2.15-2.59,.53-1.13,.82-2.39,.87-3.78Z" fill="#fff"/>
        <path d="M154.56,49.21l-2.68,1.44-1.42-2.65c-.82,3.09-2.3,5.21-4.44,6.35-3.36,1.81-6.13,.67-8.32-3.4l-6.58-12.25,2.68-1.44,6.16,11.48c.82,1.53,1.67,2.54,2.56,3.03,.89,.49,1.9,.43,3.05-.19,1.64-.88,2.85-2.85,3.64-5.9l-6.96-12.96,2.68-1.44,9.63,17.93Z" fill="#fff"/>
        <path d="M175.83,39.05c-1.54,1.64-3.22,2.84-5.05,3.6-3.36,1.38-5.77,.3-7.23-3.26l-4.73-11.51-3.61,1.49-1-2.44,3.61-1.49-2.12-5.15,2.75-1.13,2.12,5.15,6.39-2.63,1,2.44-6.39,2.63,4.43,10.76c.47,1.14,1.09,1.93,1.86,2.35,.77,.42,1.58,.46,2.45,.1,1.54-.63,2.92-1.6,4.15-2.91l1.39,1.98Z" fill="#fff"/>
        <path d="M184.75,15.25c2.68-.79,5.1-.49,7.24,.92,2.14,1.41,3.66,3.64,4.56,6.7,.91,3.08,.85,5.8-.18,8.16-1.03,2.35-2.89,3.93-5.57,4.72-2.7,.8-5.11,.49-7.25-.92-2.13-1.41-3.66-3.67-4.57-6.76-.91-3.07-.84-5.78,.19-8.11,1.04-2.33,2.89-3.9,5.58-4.69Zm5.3,17.94c1.77-.52,2.95-1.69,3.53-3.49,.58-1.8,.56-3.77-.07-5.9-.66-2.25-1.72-3.95-3.15-5.1-1.44-1.15-3.06-1.46-4.86-.93-1.81,.54-3,1.67-3.58,3.39-.58,1.73-.53,3.73,.15,6.02,.64,2.17,1.69,3.85,3.14,5.03,1.45,1.18,3.07,1.51,4.85,.98Z" fill="#fff"/>
        <path d="M222.64,28.06l-3,.56-2.44-13.13c-.59-3.17-1.48-4.65-2.65-4.43-.6,.11-1.16,.78-1.68,2.01-.52,1.23-.77,1.9-.75,2.02l2.69,14.44-2.98,.55-2.45-13.13c-.59-3.17-1.48-4.65-2.67-4.43-.59,.11-1.14,.78-1.66,2.01-.52,1.23-.77,1.9-.75,2.02l2.69,14.44-3,.56-3.72-20.01,2.88-.54,.56,3.01c.37-1.17,.88-2.14,1.53-2.92s1.37-1.24,2.14-1.38c.81-.15,1.59,.03,2.35,.55,.76,.51,1.36,1.28,1.8,2.3,.37-1.17,.88-2.14,1.54-2.92s1.37-1.24,2.13-1.38c2.42-.45,4.03,1.49,4.84,5.81l2.61,14Z" fill="#fff"/>
        <path d="M244.78,26.03l-3.02,.25c-.31-.8-.53-1.88-.64-3.24-1.52,2.67-3.77,4.13-6.74,4.37-1.51,.12-2.88-.3-4.11-1.28-1.24-.98-1.92-2.31-2.06-4-.08-1,.05-1.9,.39-2.7,.34-.8,.88-1.49,1.61-2.08s1.65-1.08,2.74-1.48c1.09-.4,2.4-.71,3.92-.96l3.38-.55-.08-.97c-.28-3.48-2.05-5.09-5.29-4.82-.77,.06-1.72,.31-2.87,.73-1.15,.43-2.12,.9-2.93,1.42l-.98-2.12c2.65-1.64,5.16-2.56,7.54-2.75,4.62-.38,7.13,1.88,7.53,6.77l.71,8.72c.14,1.77,.44,3.32,.89,4.67Zm-4.03-5.73l-.3-3.68c-2.72,.47-4.58,.85-5.58,1.15-1,.3-1.85,.77-2.55,1.41-.7,.64-1.01,1.47-.93,2.47,.07,.91,.45,1.62,1.13,2.12,.68,.51,1.51,.72,2.5,.64,1.08-.09,2.12-.5,3.13-1.23s1.87-1.69,2.59-2.89Z" fill="#fff"/>
        <path d="M267.8,25.26c-2.06,.89-4.09,1.32-6.06,1.28-3.63-.08-5.41-2.04-5.33-5.88l.26-12.44-3.91-.08,.06-2.64,3.91,.08,.12-5.56,2.97,.06-.12,5.57,6.91,.15-.06,2.64-6.91-.15-.25,11.64c-.03,1.24,.23,2.2,.76,2.9,.53,.7,1.27,1.05,2.21,1.07,1.67,.04,3.32-.3,4.96-1.01l.48,2.37Z" fill="#fff"/>
        <path d="M285.72,28.03l-3.02-.37,2.17-17.58-5.95-.74,.32-2.62,8.97,1.11-2.5,20.2ZM287.69,.01c.57,.07,1.03,.33,1.38,.79,.35,.46,.49,.97,.42,1.54-.07,.59-.33,1.07-.78,1.42-.44,.35-.96,.49-1.54,.42-.53-.07-.97-.33-1.33-.8-.36-.47-.5-.98-.43-1.54s.33-1.02,.79-1.38c.46-.36,.95-.51,1.48-.45Z" fill="#fff"/>
        <path d="M310.53,11.4c2.73,.62,4.68,2.07,5.86,4.34,1.18,2.27,1.41,4.96,.7,8.07-.72,3.14-2.1,5.48-4.15,7.02-2.05,1.55-4.44,2.01-7.17,1.39-2.74-.63-4.7-2.08-5.87-4.36-1.17-2.28-1.39-4.99-.67-8.14,.71-3.12,2.09-5.45,4.14-6.98,2.05-1.53,4.43-1.98,7.16-1.36Zm-4.17,18.24c1.8,.41,3.4-.02,4.79-1.31,1.39-1.29,2.33-3.01,2.83-5.18,.52-2.29,.44-4.28-.25-5.99-.69-1.71-1.95-2.77-3.78-3.19-1.84-.42-3.44-.02-4.78,1.2-1.35,1.22-2.29,2.99-2.82,5.32-.5,2.21-.41,4.18,.27,5.92s1.93,2.82,3.75,3.23Z" fill="#fff"/>
        <path d="M335.77,40.59l-2.89-.98,4.19-12.36c.58-1.71,.73-3.05,.44-4.01-.29-.96-1.02-1.63-2.19-2.03-1.76-.6-4.03-.14-6.79,1.37l-4.72,13.95-2.89-.98,6.53-19.28,2.89,.98-.96,2.83c2.82-1.49,5.37-1.85,7.66-1.07,3.61,1.22,4.68,4.02,3.2,8.38l-4.47,13.19Z" fill="#fff"/>
      </g>
      <g>
        <path d="M812.32,591.73l-8.35,18.79-2.24-.63-1.47-12.39-7.76,9.78-2.24-.63,2.77-20.37,2.91,.82c-1.54,9.44-2.36,14.39-2.45,14.85l6-7.5,3.01,.85,1.18,9.47,5.63-13.89,3.01,.85Z" fill="#fff"/>
        <path d="M835.65,595.69l-6.14,19.62-2.29-.37-2.88-12.14-6.58,10.61-2.29-.37,.42-20.55,2.99,.48c-.45,9.56-.69,14.57-.73,15.04l5.1-8.14,3.08,.5,2.26,9.27,4-14.45,3.08,.5Z" fill="#fff"/>
        <path d="M859.29,596.95l-3.86,20.2-2.32-.11-4.25-11.73-5.33,11.29-2.32-.11-1.93-20.46,3.02,.14c.64,9.54,.97,14.55,.99,15.02l4.13-8.67,3.12,.14,3.3,8.95,2.33-14.81,3.12,.14Z" fill="#fff"/>
        <path d="M873.63,612.08c.69-.05,1.28,.15,1.78,.58,.5,.43,.77,1,.82,1.69,.05,.7-.15,1.32-.58,1.85-.44,.53-1,.82-1.67,.87-.66,.05-1.24-.16-1.75-.63-.5-.47-.78-1.05-.83-1.75-.05-.7,.14-1.3,.57-1.79,.43-.49,.98-.76,1.66-.81Z" fill="#fff"/>
        <path d="M907.54,611.01c-1.85,1.29-3.74,2.11-5.69,2.46-3.57,.65-5.7-.92-6.39-4.7l-2.22-12.24-3.84,.7-.47-2.59,3.84-.7-.99-5.48,2.92-.53,.99,5.48,6.8-1.24,.47,2.59-6.8,1.23,2.08,11.45c.22,1.22,.66,2.11,1.32,2.69,.66,.58,1.45,.78,2.38,.61,1.64-.3,3.19-.96,4.66-1.98l.94,2.23Z" fill="#fff"/>
        <path d="M933.02,604.84l-2.9,.88c-.47-.71-.91-1.72-1.31-3.03-.92,2.93-2.81,4.83-5.66,5.7-1.45,.44-2.88,.31-4.29-.38-1.41-.69-2.37-1.85-2.86-3.47-.29-.96-.35-1.87-.19-2.72,.16-.85,.54-1.64,1.14-2.38,.59-.73,1.38-1.41,2.37-2.02,.98-.62,2.19-1.2,3.63-1.76l3.19-1.25-.28-.93c-1.01-3.34-3.08-4.54-6.19-3.59-.73,.22-1.62,.66-2.65,1.32-1.03,.66-1.89,1.33-2.56,2.01l-1.4-1.86c2.24-2.16,4.5-3.59,6.79-4.28,4.43-1.34,7.37,.33,8.79,5.03l2.54,8.37c.51,1.69,1.13,3.15,1.86,4.38Zm-5.15-4.75l-1.07-3.53c-2.56,1.03-4.29,1.8-5.21,2.3-.92,.5-1.65,1.14-2.2,1.92-.55,.78-.67,1.65-.38,2.61,.26,.87,.78,1.48,1.56,1.83s1.63,.38,2.58,.1c1.04-.31,1.97-.93,2.8-1.86,.84-.93,1.48-2.05,1.92-3.37Z" fill="#fff"/>
        <path d="M955.25,595.77l-7.63,3.31-9.92-22.86-4.88,2.11-1.05-2.42,7.67-3.33,9.92,22.86,4.84-2.1,1.05,2.42Z" fill="#fff"/>
        <path d="M978.99,582.14c-1.13,1.58-2.61,2.91-4.45,3.97-2.77,1.6-5.47,2.04-8.1,1.31-2.63-.73-4.75-2.49-6.36-5.29-1.62-2.8-2.08-5.52-1.39-8.16,.69-2.65,2.39-4.75,5.09-6.32,1.77-1.02,3.63-1.69,5.59-1.99l.57,2.58c-1.92,.37-3.52,.93-4.81,1.67-1.94,1.12-3.11,2.63-3.52,4.54-.41,1.91,0,3.93,1.24,6.07,1.13,1.96,2.67,3.27,4.62,3.93,1.94,.66,3.86,.44,5.74-.64,1.49-.86,2.86-2.03,4.1-3.52l1.68,1.85Z" fill="#fff"/>
        <path d="M981.84,555.66c2.25-1.67,4.62-2.21,7.11-1.63,2.49,.58,4.69,2.16,6.59,4.72,1.92,2.58,2.8,5.16,2.64,7.72-.16,2.56-1.36,4.68-3.61,6.35-2.26,1.68-4.63,2.22-7.12,1.62-2.49-.59-4.7-2.19-6.62-4.78-1.91-2.57-2.78-5.13-2.61-7.68,.17-2.55,1.38-4.66,3.63-6.32Zm11.14,15.03c1.49-1.1,2.19-2.6,2.12-4.49-.07-1.89-.77-3.73-2.1-5.52-1.4-1.88-2.97-3.12-4.71-3.7-1.75-.58-3.37-.32-4.88,.8-1.52,1.12-2.25,2.6-2.2,4.41,.05,1.82,.79,3.68,2.21,5.6,1.35,1.82,2.91,3.04,4.67,3.65s3.4,.36,4.89-.75Z" fill="#fff"/>
        <path d="M1019.47,549.58c-.85,2.08-2,3.8-3.45,5.15-2.65,2.48-5.29,2.32-7.92-.49l-8.5-9.09-2.85,2.67-1.8-1.93,2.85-2.67-3.8-4.07,2.17-2.03,3.8,4.07,5.05-4.72,1.8,1.93-5.05,4.72,7.95,8.5c.84,.9,1.7,1.42,2.57,1.54,.87,.13,1.64-.13,2.33-.77,1.22-1.14,2.17-2.53,2.85-4.19l2,1.37Z" fill="#fff"/>
        <path d="M1037.23,531l-1.98,2.32-9.93-8.46c-1.38-1.17-2.56-1.8-3.56-1.89-1-.09-1.89,.34-2.7,1.28-1.21,1.42-1.62,3.69-1.24,6.82l11.21,9.55-1.98,2.32-20.98-17.87,1.98-2.32,7.76,6.61c-.35-3.17,.27-5.67,1.84-7.52,2.47-2.9,5.46-2.86,8.97,.13l10.6,9.03Z" fill="#fff"/>
        <path d="M1044.01,513.93c.39-.57,.9-.92,1.55-1.05,.65-.13,1.26,0,1.83,.39,.58,.39,.95,.93,1.1,1.6,.15,.67,.04,1.29-.34,1.85-.37,.55-.9,.88-1.57,.99-.68,.11-1.31-.03-1.89-.42s-.94-.91-1.06-1.55c-.12-.64,0-1.24,.38-1.81Z" fill="#fff"/>
        <path d="M1048.19,480.88c-1.28,1.26-2.27,2.56-2.97,3.9-.76,1.47-1.12,2.76-1.07,3.87,.05,1.11,.48,1.88,1.3,2.3,.52,.27,1.08,.31,1.67,.12,.59-.19,1.36-.79,2.31-1.8l2.08-2.2c.95-1.02,1.86-1.78,2.71-2.29,.86-.51,1.72-.78,2.58-.81,.86-.03,1.73,.18,2.61,.64,1.72,.89,2.71,2.32,2.96,4.28,.25,1.96-.2,4.06-1.36,6.29-1.15,2.22-2.44,3.88-3.86,4.98l-2.07-1.73c1.5-1.14,2.7-2.58,3.6-4.31,.78-1.5,1.13-2.87,1.06-4.1-.07-1.23-.57-2.09-1.5-2.57-.63-.32-1.3-.38-2.04-.17-.73,.21-1.82,1.05-3.25,2.51-1.15,1.18-2,2.04-2.56,2.59-.56,.55-1.19,1-1.9,1.35-.71,.35-1.43,.52-2.16,.52s-1.46-.19-2.17-.56c-1.56-.81-2.44-2.13-2.65-3.97-.21-1.84,.28-3.88,1.44-6.14,.75-1.46,1.84-2.95,3.26-4.47l1.96,1.78Z" fill="#fff"/>
        <path d="M1073.65,462.44c.15,2.24-.13,4.29-.83,6.14-1.29,3.39-3.73,4.41-7.32,3.04l-11.63-4.43-1.39,3.65-2.46-.94,1.39-3.65-5.2-1.98,1.06-2.77,5.2,1.98,2.46-6.46,2.46,.94-2.46,6.46,10.88,4.14c1.16,.44,2.15,.53,2.98,.26,.83-.27,1.42-.84,1.75-1.72,.59-1.56,.83-3.23,.72-5.01l2.4,.35Z" fill="#fff"/>
        <path d="M1081.4,437.94l-.75,2.95-2.92-.74c1.72,2.69,2.28,5.21,1.69,7.56-.94,3.7-3.65,4.98-8.13,3.84l-13.48-3.42,.75-2.95,12.63,3.21c1.68,.43,3,.48,3.96,.16,.96-.32,1.6-1.11,1.92-2.37,.46-1.8-.17-4.03-1.89-6.67l-14.25-3.62,.75-2.95,19.73,5.01Z" fill="#fff"/>
        <path d="M1085.45,412.31l-.41,3.02-2.9-.39c.91,.75,1.61,1.75,2.1,2.99,.49,1.24,.65,2.5,.48,3.78-.31,2.31-1.58,4-3.82,5.06-2.24,1.07-4.94,1.39-8.1,.96-2.96-.4-5.31-1.43-7.06-3.09-1.75-1.66-2.48-3.65-2.17-5.96,.34-2.54,1.65-4.45,3.92-5.72l-9.76-1.31,.41-3.02,27.31,3.67Zm-6.58,2.19l-8.38-1.13c-2.52,1.13-3.91,2.72-4.19,4.76-.22,1.66,.34,3.08,1.69,4.25,1.35,1.17,3.15,1.9,5.41,2.21,2.32,.31,4.3,.12,5.94-.59,1.64-.71,2.56-1.85,2.78-3.44,.1-.76,0-1.56-.31-2.39-.31-.83-.83-1.64-1.56-2.44-.73-.79-1.19-1.2-1.37-1.23Z" fill="#fff"/>
        <path d="M1058.38,392.3c.01-.57,.22-1.06,.64-1.45,.42-.4,.91-.59,1.49-.58,.6,.01,1.1,.22,1.49,.62,.4,.41,.59,.9,.58,1.49,0,.53-.23,1-.66,1.4s-.93,.6-1.49,.59c-.56-.01-1.04-.23-1.45-.64-.41-.42-.61-.89-.6-1.43Zm28.07-.93l-.06,3.05-17.71-.35-.12,5.99-2.64-.05,.18-9.04,20.35,.4Z" fill="#fff"/>
        <path d="M1064.7,370.21c-.26-2.79,.51-5.09,2.3-6.92,1.79-1.83,4.28-2.89,7.45-3.18,3.2-.3,5.86,.29,7.97,1.75s3.29,3.59,3.55,6.38c.26,2.8-.51,5.11-2.31,6.93-1.8,1.82-4.31,2.88-7.52,3.18-3.19,.3-5.83-.29-7.92-1.76-2.09-1.47-3.27-3.59-3.52-6.38Zm18.63-1.73c-.17-1.84-1.08-3.22-2.74-4.14-1.65-.92-3.59-1.28-5.81-1.07-2.33,.22-4.2,.92-5.61,2.11-1.41,1.19-2.02,2.72-1.85,4.58,.17,1.88,1.05,3.27,2.63,4.17,1.58,.9,3.56,1.24,5.93,1.02,2.26-.21,4.1-.91,5.54-2.1,1.44-1.19,2.07-2.72,1.9-4.57Z" fill="#fff"/>
      </g>
    </g>
  </g>
</svg>