<?xml version="1.0" encoding="UTF-8"?>
<svg id="b" data-name="Layer 2" xmlns="http://www.w3.org/2000/svg" width="1198.71" height="715.04" viewBox="0 0 1198.71 715.04">
  <g id="c" data-name="Layer 1">
    <g>
      <text transform="translate(291.15 365.38)" fill="#fff" font-family="BroukhaFree-Regular, &apos;Broukha Free&apos;" font-size="200"><tspan x="0" y="0">Oliver</tspan></text>
      <text transform="translate(227.55 533.08)" fill="#fff" font-family="BroukhaFree-Regular, &apos;Broukha Free&apos;" font-size="200"><tspan x="0" y="0">Talcoth</tspan></text>
      <path d="M986.56,338.49c-1.36,.22-2.72,.43-4.08,.66-5.63,.97-11.21,2.13-16.63,3.99-1.59,.55-3.13,1.21-4.63,1.97-2.11,1.08-3.61,2.71-4.66,4.81-1.26,2.52-2.15,5.17-2.92,7.86-1.06,3.71-1.86,7.47-2.56,11.26-.36,1.98-.69,3.97-.98,6.06-.14-.5-.15-.93-.21-1.36-.94-6.55-2.09-13.06-4.12-19.37-.66-2.05-1.45-4.04-2.55-5.9-.92-1.57-2.23-2.69-3.81-3.53-2.19-1.17-4.52-1.98-6.89-2.68-3.77-1.11-7.6-1.93-11.46-2.61-2.43-.43-4.87-.82-7.32-1.13-.03,0-.05-.02-.08-.03,.07-.08,.16-.07,.24-.07,2.46-.17,4.91-.41,7.35-.71,5.2-.66,10.39-1.44,15.41-3,1.85-.57,3.65-1.26,5.28-2.32,1.28-.83,2.13-2.02,2.81-3.35,1.07-2.11,1.75-4.37,2.33-6.65,.91-3.62,1.53-7.29,2.02-10.99,.37-2.81,.67-5.63,.9-8.46,.03-.32,0-.64,.1-1,.19,1.3,.35,2.56,.55,3.81,.97,6.12,2.11,12.21,4.1,18.1,.46,1.36,1.02,2.67,1.64,3.97,1.06,2.23,2.7,3.84,4.93,4.9,2.44,1.15,4.99,1.97,7.6,2.65,3.83,1,7.72,1.7,11.63,2.3,1.95,.3,3.91,.55,5.87,.76,.05,0,.1,.02,.14,.03,0,.01,0,.03,0,.04Z" fill="#fff"/>
      <path d="M1008,289.7c-.8,.13-1.6,.25-2.39,.39-3.49,.61-6.95,1.32-10.28,2.54-.82,.3-1.62,.65-2.38,1.07-1.05,.58-1.84,1.4-2.4,2.46-.94,1.76-1.53,3.65-2.05,5.57-.84,3.09-1.4,6.23-1.93,9.4-.09-.6-.17-1.19-.26-1.79-.51-3.4-1.15-6.77-2.18-10.06-.32-1.02-.71-2.01-1.17-2.98-.64-1.35-1.62-2.34-2.97-2.98-1.87-.9-3.85-1.49-5.86-1.98-2.84-.69-5.7-1.21-8.6-1.58-.11-.01-.22-.05-.42-.09,1.61-.13,3.12-.27,4.63-.46,3.39-.44,6.77-.94,10-2.11,.24-.09,.48-.2,.72-.29,1.87-.69,2.88-2.14,3.53-3.94,.69-1.91,1.13-3.88,1.49-5.87,.52-2.83,.83-5.69,1.06-8.56,0-.05,.01-.1,.03-.25,.15,.97,.27,1.84,.41,2.72,.61,3.71,1.3,7.4,2.62,10.94,.29,.77,.64,1.5,1.05,2.22,.64,1.13,1.65,1.82,2.79,2.34,1.82,.84,3.74,1.36,5.68,1.8,2.88,.65,5.79,1.09,8.72,1.44,.05,0,.09,.01,.14,.02,0,.01,0,.02,0,.04Z" fill="#fff"/>
      <text transform="translate(123.04 384.25) rotate(-98.53)" fill="#fff" font-family="AndaleMono, &apos;Andale Mono&apos;" font-size="40"><tspan x="0" y="0">s</tspan></text>
      <text transform="translate(119.55 361.19) rotate(-92.65)" fill="#fff" font-family="AndaleMono, &apos;Andale Mono&apos;" font-size="40"><tspan x="0" y="0">o</tspan></text>
      <text transform="translate(118.44 337.87) rotate(-86.79)" fill="#fff" font-family="AndaleMono, &apos;Andale Mono&apos;" font-size="40"><tspan x="0" y="0">f</tspan></text>
      <text transform="translate(119.71 314.57) rotate(-80.96)" fill="#fff" font-family="AndaleMono, &apos;Andale Mono&apos;" font-size="40"><tspan x="0" y="0">t</tspan></text>
      <text transform="translate(123.34 291.54) rotate(-75.13)" fill="#fff" font-family="AndaleMono, &apos;Andale Mono&apos;" font-size="40"><tspan x="0" y="0">w</tspan></text>
      <text transform="translate(129.29 268.98) rotate(-69.29)" fill="#fff" font-family="AndaleMono, &apos;Andale Mono&apos;" font-size="40"><tspan x="0" y="0">a</tspan></text>
      <text transform="translate(137.51 247.14) rotate(-63.42)" fill="#fff" font-family="AndaleMono, &apos;Andale Mono&apos;" font-size="40"><tspan x="0" y="0">r</tspan></text>
      <text transform="translate(147.91 226.27) rotate(-57.53)" fill="#fff" font-family="AndaleMono, &apos;Andale Mono&apos;" font-size="40"><tspan x="0" y="0">e</tspan></text>
      <text transform="translate(160.42 206.56) rotate(-51.62)" fill="#fff" font-family="AndaleMono, &apos;Andale Mono&apos;" font-size="40"><tspan x="0" y="0"> </tspan></text>
      <text transform="translate(174.87 188.26) rotate(-45.71)" fill="#fff" font-family="AndaleMono, &apos;Andale Mono&apos;" font-size="40"><tspan x="0" y="0">&amp;</tspan></text>
      <text transform="translate(191.13 171.54) rotate(-39.84)" fill="#fff" font-family="AndaleMono, &apos;Andale Mono&apos;" font-size="40"><tspan x="0" y="0"> </tspan></text>
      <text transform="translate(208.92 156.52) rotate(-33.58)" fill="#fff" font-family="AndaleMono, &apos;Andale Mono&apos;" font-size="40"><tspan x="0" y="0">a</tspan></text>
      <text transform="translate(228.35 143.46) rotate(-28.24)" fill="#fff" font-family="AndaleMono, &apos;Andale Mono&apos;" font-size="40"><tspan x="0" y="0">u</tspan></text>
      <text transform="translate(248.89 132.39) rotate(-22.36)" fill="#fff" font-family="AndaleMono, &apos;Andale Mono&apos;" font-size="40"><tspan x="0" y="0">t</tspan></text>
      <text transform="translate(270.43 123.49) rotate(-16.45)" fill="#fff" font-family="AndaleMono, &apos;Andale Mono&apos;" font-size="40"><tspan x="0" y="0">o</tspan></text>
      <text transform="translate(292.8 116.85) rotate(-10.54)" fill="#fff" font-family="AndaleMono, &apos;Andale Mono&apos;" font-size="40"><tspan x="0" y="0">m</tspan></text>
      <text transform="translate(315.73 112.55) rotate(-4.66)" fill="#fff" font-family="AndaleMono, &apos;Andale Mono&apos;" font-size="40"><tspan x="0" y="0">a</tspan></text>
      <text transform="translate(338.99 110.62) rotate(1.21)" fill="#fff" font-family="AndaleMono, &apos;Andale Mono&apos;" font-size="40"><tspan x="0" y="0">t</tspan></text>
      <text transform="translate(362.31 111.08) rotate(7.05)" fill="#fff" font-family="AndaleMono, &apos;Andale Mono&apos;" font-size="40"><tspan x="0" y="0">i</tspan></text>
      <text transform="translate(385.47 113.9) rotate(12.88)" fill="#fff" font-family="AndaleMono, &apos;Andale Mono&apos;" font-size="40"><tspan x="0" y="0">o</tspan></text>
      <text transform="translate(408.21 119.07) rotate(18.71)" fill="#fff" font-family="AndaleMono, &apos;Andale Mono&apos;" font-size="40"><tspan x="0" y="0">n</tspan></text>
      <text transform="translate(876.62 690.12) rotate(15.78)" fill="#fff" font-family="AndaleMono, &apos;Andale Mono&apos;" font-size="40"><tspan x="0" y="0">w</tspan></text>
      <text transform="translate(901.68 697.08) rotate(9.19)" fill="#fff" font-family="AndaleMono, &apos;Andale Mono&apos;" font-size="40"><tspan x="0" y="0">w</tspan></text>
      <text transform="translate(927.36 701.12) rotate(2.64)" fill="#fff" font-family="AndaleMono, &apos;Andale Mono&apos;" font-size="40"><tspan x="0" y="0">w</tspan></text>
      <text transform="translate(953.38 702.23) rotate(-3.99)" fill="#fff" font-family="AndaleMono, &apos;Andale Mono&apos;" font-size="40"><tspan x="0" y="0">.</tspan></text>
      <text transform="translate(979.23 700.36) rotate(-10.29)" fill="#fff" font-family="AndaleMono, &apos;Andale Mono&apos;" font-size="40"><tspan x="0" y="0">t</tspan></text>
      <text transform="translate(1004.79 695.61) rotate(-16.85)" fill="#fff" font-family="AndaleMono, &apos;Andale Mono&apos;" font-size="40"><tspan x="0" y="0">a</tspan></text>
      <text transform="translate(1029.65 687.95) rotate(-23.45)" fill="#fff" font-family="AndaleMono, &apos;Andale Mono&apos;" font-size="40"><tspan x="0" y="0">l</tspan></text>
      <text transform="translate(1053.46 677.5) rotate(-30.02)" fill="#fff" font-family="AndaleMono, &apos;Andale Mono&apos;" font-size="40"><tspan x="0" y="0">c</tspan></text>
      <text transform="translate(1075.9 664.4) rotate(-36.57)" fill="#fff" font-family="AndaleMono, &apos;Andale Mono&apos;" font-size="40"><tspan x="0" y="0">o</tspan></text>
      <text transform="translate(1096.71 648.82) rotate(-43.08)" fill="#fff" font-family="AndaleMono, &apos;Andale Mono&apos;" font-size="40"><tspan x="0" y="0">t</tspan></text>
      <text transform="translate(1115.61 630.99) rotate(-49.58)" fill="#fff" font-family="AndaleMono, &apos;Andale Mono&apos;" font-size="40"><tspan x="0" y="0">h</tspan></text>
      <text transform="translate(1132.38 611.14) rotate(-56.08)" fill="#fff" font-family="AndaleMono, &apos;Andale Mono&apos;" font-size="40"><tspan x="0" y="0">.</tspan></text>
      <text transform="translate(1146.78 589.53) rotate(-62.6)" fill="#fff" font-family="AndaleMono, &apos;Andale Mono&apos;" font-size="40"><tspan x="0" y="0">s</tspan></text>
      <text transform="translate(1158.64 566.39) rotate(-69.16)" fill="#fff" font-family="AndaleMono, &apos;Andale Mono&apos;" font-size="40"><tspan x="0" y="0">t</tspan></text>
      <text transform="translate(1167.79 542.03) rotate(-75.75)" fill="#fff" font-family="AndaleMono, &apos;Andale Mono&apos;" font-size="40"><tspan x="0" y="0">u</tspan></text>
      <text transform="translate(1174.08 516.79) rotate(-82.34)" fill="#fff" font-family="AndaleMono, &apos;Andale Mono&apos;" font-size="40"><tspan x="0" y="0">d</tspan></text>
      <text transform="translate(1177.43 491.03) rotate(-88.87)" fill="#fff" font-family="AndaleMono, &apos;Andale Mono&apos;" font-size="40"><tspan x="0" y="0">i</tspan></text>
      <text transform="translate(1177.83 465.09) rotate(-95.29)" fill="#fff" font-family="AndaleMono, &apos;Andale Mono&apos;" font-size="40"><tspan x="0" y="0">o</tspan></text>
    </g>
  </g>
</svg>